<svg width="750" height="750" viewBox="0 0 750 750" fill="none" xmlns="http://www.w3.org/2000/svg">
<g id="Illustration/Technology">
<rect width="750" height="750" fill="white"/>
<g id="blob">
<path class="ray" fill-rule="evenodd" clip-rule="evenodd" d="M426.74 482.22C435.822 480.267 435.376 472.521 464.627 472.521C469.846 472.521 480.231 476.357 486.561 477.765C498.663 480.457 521.082 490.635 521.082 490.635C521.082 490.635 531.073 496.677 547.049 496.982C563.026 497.286 571.716 492.939 588.59 492.939C600.896 492.939 611.577 496.982 622.119 496.982C632.661 496.982 647.228 495.638 647.725 487.525C654.423 378.226 618.438 332.924 593.741 294.44C554.58 233.417 565.382 140.877 515.89 185.963C503.335 197.4 501.832 206.833 479.621 219.06C461.94 228.792 448.168 230.725 438.793 236.676C412.84 253.151 399.21 276.105 381.154 287.087C349.623 306.265 339.281 298.492 314.355 311.615C311.065 313.347 307.416 315.79 303.356 317.431C295.282 320.693 286.08 323.333 278.35 328.782C272.101 333.187 262.494 345.876 262.494 345.876L203.274 366.502C203.274 366.502 190.121 372.613 195.623 394.418C201.125 416.223 218.438 464.47 218.438 464.47C218.438 464.47 234.926 464.234 248.751 472.521C262.575 480.808 267.106 498.925 267.106 498.925C267.106 498.925 300.267 488.912 314.355 484.005C318.224 482.658 326.975 479.256 340.352 478.619C355.016 477.921 366.072 485.185 387.39 486.244C399.369 486.839 417.657 484.172 426.74 482.22Z" fill="#64FCD9"/>
<g id="rayoutline">
<path id="Stroke" fill-rule="evenodd" clip-rule="evenodd" d="M402.498 484.731C411.581 483.798 420.663 482.865 429.745 481.933C428.123 484.413 424.86 485.112 421.93 485.558C404.702 488.181 386.811 489.343 370.081 484.462C352.549 479.347 333.51 479.528 316.078 484.975C316.217 482.796 318.657 481.628 320.749 481.003C334.84 476.787 350.09 476.519 364.322 480.236C370.619 481.88 376.744 484.291 383.192 485.173C389.586 486.048 396.079 485.39 402.498 484.731Z" fill="#00160A"/>
<path id="Stroke_2" fill-rule="evenodd" clip-rule="evenodd" d="M331.236 303.328C340.139 301.073 349.579 301.002 358.185 297.794C358.642 298.145 359.099 298.497 359.556 298.848C355.528 302.755 349.284 302.797 343.692 303.268C333.062 304.162 322.644 307.502 313.475 312.955C309.076 315.571 304.839 318.718 299.857 319.893C287.985 322.693 277.058 329.363 269.141 338.643C268.607 337.713 267.711 336.996 266.685 336.679C272.98 331.12 279.913 326.287 287.306 322.304C291.778 319.895 296.41 317.799 301.038 315.706C304.929 313.946 308.82 312.186 312.711 310.426C318.744 307.697 324.816 304.954 331.236 303.328V303.328Z" fill="#00160A"/>
<path id="Stroke_3" fill-rule="evenodd" clip-rule="evenodd" d="M505.021 199.172C503.468 201.293 502.014 203.498 500.245 205.443C497.905 208.016 495.066 210.076 492.228 212.088C483.651 218.169 474.797 224.026 465.009 227.864C460.449 229.652 455.721 230.987 451.173 232.804C436.92 238.497 424.891 248.748 414.751 260.268C413.962 261.164 413.12 262.111 411.976 262.454C410.833 262.796 409.33 262.217 409.159 261.036C421.083 249.713 433.339 238.166 448.42 231.611C455.139 228.691 462.282 226.829 468.97 223.839C475.622 220.865 481.733 216.816 487.717 212.658C491.698 209.891 495.667 207.043 498.982 203.505C504.2 197.937 507.777 190.695 514.132 186.47C514.903 185.957 516.256 185.693 516.485 186.59C512.23 190.36 508.38 194.586 505.021 199.172Z" fill="#00160A"/>
<path id="Stroke_4" fill-rule="evenodd" clip-rule="evenodd" d="M563.617 498.321C550.875 500.046 537.729 498.713 525.593 494.466C523.505 493.736 521.041 492.281 521.343 490.091C533.219 495.281 546.455 497.319 559.342 495.944C567.927 495.027 576.341 492.631 584.968 492.303C594.736 491.933 604.38 494.223 614.065 495.55C623.75 496.877 634.006 497.164 642.879 493.062C643.708 492.678 644.601 492.247 645.495 492.435C646.389 492.622 647.084 493.794 646.474 494.474C646.289 494.681 646.026 494.798 645.77 494.907C638.646 497.942 630.874 499.446 623.132 499.287C610.703 499.032 598.571 494.569 586.146 494.982C578.552 495.234 571.146 497.302 563.617 498.321Z" fill="#00160A"/>
<path id="Stroke_5" fill-rule="evenodd" clip-rule="evenodd" d="M482.014 478.442C482.663 477.466 484.067 477.45 485.232 477.571C490.704 478.139 496.104 479.395 501.265 481.3C505.403 482.827 509.401 484.779 513.017 487.306C509.293 487.572 505.795 485.733 502.345 484.305C497.619 482.349 492.635 481.1 487.673 479.858C485.787 479.386 483.901 478.914 482.014 478.442Z" fill="#00160A"/>
</g>
</g>
<g id="watch">
<path fill-rule="evenodd" clip-rule="evenodd" d="M220.91 363.568C221.743 363.086 222.564 364.543 222.01 365.33C221.456 366.116 220.375 366.261 219.426 366.416C213.398 367.394 208.202 371.432 204.587 376.354C202.693 378.932 201.109 382.028 201.532 385.199C201.761 386.921 202.427 389.05 201.053 390.113C199.452 388.407 198.526 386.084 198.516 383.744C198.497 379.617 201.148 375.994 203.879 372.899C207.016 369.343 210.809 365.836 215.523 365.329C217.416 365.126 219.264 364.521 220.91 363.568Z" fill="#00160A"/>
<path fill-rule="evenodd" clip-rule="evenodd" d="M289.344 483.837C294.254 481.859 299.355 479.748 302.839 475.762C303.26 475.28 303.697 474.745 304.317 474.584C304.937 474.423 305.743 474.903 305.617 475.531C305.005 478.59 301.93 480.408 299.158 481.84C297.472 482.711 295.787 483.582 294.101 484.453C293.267 484.884 292.393 485.325 291.455 485.332C290.516 485.339 289.502 484.763 289.344 483.837Z" fill="#00160A"/>
<path fill-rule="evenodd" clip-rule="evenodd" d="M212.493 432.123C211.257 429.112 210.113 426.063 209.065 422.982C208.807 422.224 208.555 421.465 208.303 420.705C206.202 414.372 204.1 408.038 202.238 401.63C202.021 400.883 202.246 399.662 202.987 399.902C203.291 400 203.441 400.333 203.557 400.631C205.991 406.913 208.426 413.194 210.86 419.476C212.499 423.703 214.165 428.1 213.868 432.624C213.845 432.964 213.369 433.107 213.071 432.942C212.773 432.776 212.622 432.438 212.493 432.123Z" fill="#00160A"/>
<path fill-rule="evenodd" clip-rule="evenodd" d="M305.773 460.302C306.028 461.385 305.769 463.065 304.674 462.868C301.372 450.951 298.237 438.988 295.269 426.983C295.169 426.58 295.07 426.146 295.215 425.756C295.36 425.367 295.857 425.082 296.205 425.31C296.38 425.423 296.47 425.628 296.549 425.821C299.135 432.129 300.708 438.798 302.271 445.434C303.438 450.39 304.606 455.346 305.773 460.302Z" fill="#00160A"/>
<path fill-rule="evenodd" clip-rule="evenodd" d="M200.215 338.662C199.736 339.028 199.258 339.393 198.779 339.759C188.243 332.013 175.5 327.305 162.459 326.34C162.277 325.748 162.225 325.118 162.305 324.505C174.094 324.595 185.835 328.165 195.678 334.654C197.373 335.771 199.044 337.003 200.215 338.662Z" fill="#00160A"/>
<path fill-rule="evenodd" clip-rule="evenodd" d="M234.896 563.581C249.838 555.621 262.83 544.031 272.438 530.092C274.361 527.303 276.148 524.424 277.935 521.547C278.667 520.369 279.398 519.191 280.13 518.012C281.35 521.742 278.865 525.575 276.51 528.715C265.948 542.796 254.479 557.574 237.975 563.695C236.954 564.074 235.657 564.361 234.896 563.581Z" fill="#00160A"/>
<path fill-rule="evenodd" clip-rule="evenodd" d="M109.933 400.34C108.016 399.906 106.35 398.485 105.619 396.661C104.888 394.837 105.112 392.659 106.199 391.021C107.54 389.001 109.95 387.963 112.307 387.394C114.706 386.814 117.194 386.606 119.656 386.78C120.595 386.846 121.57 386.982 122.346 387.514C122.945 387.925 123.376 388.542 123.697 389.194C124.779 391.393 124.668 394.138 123.411 396.243C122.153 398.347 119.789 399.746 117.339 399.835C114.853 399.926 112.359 400.889 109.933 400.34ZM113.087 394.938C114.926 394.842 116.758 394.63 118.57 394.305C119.306 394.173 120.096 393.991 120.585 393.425C121.074 392.859 121.014 391.791 120.309 391.539C117.615 390.575 114.478 390.947 112.084 392.516C111.531 392.878 110.957 393.463 111.128 394.102C111.327 394.848 112.317 394.978 113.087 394.938Z" fill="#00160A"/>
<path fill-rule="evenodd" clip-rule="evenodd" d="M241.162 343.246C241.473 343.266 241.601 343.705 241.446 343.976C241.312 344.208 241.064 344.337 240.813 344.441L222.908 351.439C222.193 351.719 220.958 351.57 221.179 350.834C221.267 350.539 221.587 350.388 221.874 350.274C228.229 347.734 234.662 345.39 241.162 343.246Z" fill="#00160A"/>
<path fill-rule="evenodd" clip-rule="evenodd" d="M132.798 497.453C131.808 496.319 130.877 495.006 130.789 493.503C130.732 492.534 131.038 491.575 131.456 490.698C133.12 487.211 136.616 484.778 140.39 483.95C144.165 483.121 148.167 483.783 151.711 485.324C152.998 485.884 154.281 486.596 155.1 487.736C156.382 489.518 156.246 492.03 155.286 494.004C154.327 495.979 152.673 497.519 150.995 498.934C149.449 500.238 147.776 501.514 145.8 501.946C144.737 502.179 143.637 502.155 142.549 502.13C141.459 502.104 140.36 502.078 139.296 501.838C136.703 501.254 134.546 499.456 132.798 497.453ZM139.982 490.779C139.081 489.915 137.654 489.024 136.727 489.858C135.932 490.573 135.317 491.485 134.953 492.49C136.762 492.552 138.586 491.932 139.982 490.779ZM142.606 486.56C141.507 486.824 140.365 487.109 139.502 487.839C140.11 488.457 140.813 489.041 141.661 489.223C142.509 489.405 143.524 489.06 143.855 488.258C144.186 487.457 143.449 486.357 142.606 486.56ZM145.611 494.063C145.527 494.723 145.447 495.411 145.664 496.04C145.88 496.669 146.491 497.216 147.151 497.128C148.096 497.001 148.511 495.764 149.416 495.463C148.256 494.753 146.954 494.274 145.611 494.063ZM149.883 488.673C150.617 488.897 151.476 488.264 151.48 487.497C149.659 486.856 147.423 487.854 146.685 489.638C147.802 489.867 149.025 489.485 149.813 488.661M143.522 496.472C143.433 496.25 143.301 496.019 143.076 495.937C142.346 495.671 142.159 497.029 141.476 497.399C140.831 497.748 140.924 498.843 141.564 499.199C142.204 499.555 143.076 499.216 143.457 498.59C143.837 497.964 143.795 497.152 143.522 496.472ZM138.151 494.79C137.492 495.353 136.291 495.096 135.834 495.833C135.435 496.476 136.087 497.377 136.841 497.437C137.596 497.498 138.284 496.977 138.735 496.368C138.982 496.034 139.19 495.622 139.097 495.217C139.003 494.813 138.466 494.52 138.151 494.79ZM151.797 492.391C152.04 492.146 152.283 491.902 152.526 491.657C151.895 491.046 150.878 491.189 150.019 491.373C149.754 491.43 149.47 491.497 149.288 491.697C148.864 492.164 149.372 492.977 149.996 493.065C150.62 493.153 151.21 492.791 151.736 492.444L151.797 492.391Z" fill="#00160A"/>
<path fill-rule="evenodd" clip-rule="evenodd" d="M277.159 354.154C277.747 355.448 278.337 356.746 279.429 357.623C280.889 358.795 283.68 358.442 283.936 356.587C260.569 333.76 229.88 318.547 197.566 313.771C165.251 308.995 131.473 314.68 102.502 329.771C96.8591 332.71 91.3325 336.043 86.8441 340.553C82.7498 344.667 79.5986 349.715 77.6999 355.2C77.0993 356.935 76.6149 358.727 76.1308 360.518C75.0159 364.644 73.9031 368.761 71.3774 372.153C64.5819 381.279 62.2784 393.594 65.3157 404.56C66.0646 407.263 67.1122 409.868 68.1601 412.474C69.1021 414.816 70.0444 417.159 70.7699 419.574C72.14 424.136 72.7161 428.88 73.2914 433.616C73.4234 434.703 73.5553 435.789 73.6968 436.873C80.8922 491.987 115.042 542.936 163.288 570.535C169.476 574.074 175.978 577.284 182.984 578.599C189.148 579.756 195.488 579.406 201.735 578.864C213.704 577.827 225.727 576.072 236.965 571.825C267.615 560.241 288.481 531.919 305.058 503.656C310.582 494.237 315.971 484.195 316.354 473.282C316.597 466.359 314.795 459.547 313.008 452.854L305.49 424.701L302.5 424.968L311.533 460.703C313.172 467.185 314.692 474.524 311.123 480.179C309.17 483.274 305.968 485.337 302.796 487.162C291.247 493.807 278.673 498.666 265.657 501.514C261.727 481.158 241.014 465.509 220.359 467.29C217.639 467.525 215.995 464.424 215.102 461.844L194.054 401.062C191.141 392.65 188.255 383.239 191.897 375.117C195.727 366.577 205.365 362.543 214.14 359.286L242.386 348.802C248.293 346.609 254.362 344.387 260.663 344.429C266.964 344.47 273.645 347.267 276.544 352.861C276.762 353.281 276.96 353.718 277.159 354.154ZM156.168 342.726C162.48 347.998 167.989 354.599 170.371 362.471C170.896 364.206 172.446 366.484 173.906 365.41C181.667 359.704 190.771 356.167 199.755 352.695L211.283 348.239C223.949 343.343 236.792 338.403 250.291 336.921C242.188 330.088 232.403 325.512 222.363 322.113C196.509 313.361 168.17 312.091 141.637 318.496C139.106 319.108 136.587 319.788 134.142 320.685C132.309 321.358 130.514 322.154 128.721 322.949C125.303 324.464 121.891 325.976 118.226 326.633C132.086 328.116 145.469 333.793 156.168 342.726ZM127.867 330.557C137.381 333.025 145.961 338.249 153.804 344.174C155.125 345.172 156.565 346.484 156.42 348.133C153.597 347.265 150.434 348.482 148.356 350.581C146.279 352.681 145.13 355.526 144.367 358.38C143.527 361.523 143.093 364.775 143.081 368.029C143.071 370.686 143.339 373.344 143.608 375.999C144.016 380.04 144.423 384.073 143.845 388.076C142.534 397.154 136.087 405.009 128.012 409.358C119.937 413.707 110.426 414.843 101.292 414.016C95.4702 413.488 90.3646 409.585 87.0715 404.755C83.7784 399.926 82.0398 394.225 80.537 388.576C78.9775 382.714 77.6127 376.726 77.7038 370.661C77.8763 359.184 83.3865 348.174 91.4263 339.981C93.7956 337.566 96.3965 335.357 99.3067 333.632C107.763 328.622 118.353 328.09 127.867 330.557ZM81.237 400.087C77.3734 391.167 75.3692 381.539 74.2359 371.884C68.0336 380.774 65.5919 392.202 67.6192 402.85C69.6465 413.499 76.1164 423.23 85.1514 429.219C87.7748 430.958 88.408 434.384 88.9904 437.535L88.9906 437.536C89.0385 437.796 89.0861 438.053 89.1344 438.308C90.677 446.431 94.4566 453.93 98.1934 461.306C105.414 475.559 112.723 489.948 122.954 502.22C129.262 509.786 137.937 516.945 147.744 516.016C158.336 515.012 165.98 504.47 167.36 493.921C168.739 483.371 165.361 472.844 162.028 462.74L151.084 429.569C150.649 428.25 150.276 426.621 151.237 425.619C157.173 419.428 158.775 410.051 157.431 401.58C156.087 393.109 152.178 385.291 148.279 377.652C146.907 378.111 146.965 380.036 147.175 381.467C148.747 392.178 143.139 403.208 134.422 409.626C125.705 416.045 114.357 418.214 103.579 417.208C99.4938 416.827 95.3563 415.983 91.8428 413.864C86.7976 410.822 83.5785 405.494 81.237 400.087ZM195.719 534.262C191.144 531.042 187.537 526.644 184.217 522.141C178.879 514.902 174.119 507.238 169.996 499.244C167.912 505.147 164.181 510.459 159.335 514.422C153.783 518.962 145.616 519.218 138.926 516.633C132.237 514.048 126.78 509.041 121.935 503.753C104.592 484.826 93.0767 461.068 86.2011 436.334C85.4989 433.808 84.7196 431.079 82.6347 429.489C80.5498 427.899 76.758 428.454 76.2246 431.021C76.1104 431.57 76.1572 432.139 76.2045 432.698C77.0212 442.359 77.8513 452.094 80.5421 461.409C81.8371 465.892 83.5533 470.241 85.3053 474.565C91.7328 490.431 98.7723 506.243 109.05 519.932C122.647 538.044 141.272 551.623 159.605 564.92C166.451 569.885 174.637 575.115 182.763 572.773C186.068 571.82 188.899 569.688 191.483 567.419C200.365 559.617 207.306 549.623 211.514 538.575C205.986 539.44 200.295 537.483 195.719 534.262ZM278.139 500.444L248.42 509.646C241.611 511.754 234.698 513.88 227.572 514.08C220.447 514.281 212.957 512.314 207.932 507.258C210.655 513.861 215.355 519.633 221.267 523.639C222.769 524.657 222.181 526.967 221.431 528.62C217.178 537.993 212.89 547.429 206.979 555.855C201.067 564.282 193.369 571.733 183.895 575.758C186.136 576.696 188.524 577.284 190.945 577.493C194.388 577.79 197.846 577.325 201.271 576.861C216.29 574.825 231.652 572.685 245.101 565.696C256.968 559.529 266.643 549.944 276.115 540.503C283.894 532.749 292.003 524.419 294.572 513.74C295.754 508.831 298.978 504.738 302.182 500.67C305.804 496.073 309.4 491.507 309.994 485.832C300.924 493.32 289.374 496.965 278.139 500.444ZM159.408 417.036C162.4 409.417 161.656 400.737 159.022 392.987C156.388 385.237 151.991 378.228 147.632 371.3C145.121 367.308 146.077 362.062 147.836 357.685C149.227 354.221 151.701 350.509 155.429 350.307C158.992 350.114 161.799 353.236 163.698 356.256C167.116 361.688 169.54 368.526 167.091 374.458C164.32 381.169 165.113 388.749 165.953 395.96L166.565 401.221C167.174 406.456 167.803 411.769 169.808 416.643C176.59 433.125 182.383 450.014 187.147 467.189L187.309 467.776C188.511 472.121 189.731 476.527 192.12 480.343C192.525 480.991 192.962 481.618 193.399 482.244C194.033 483.153 194.666 484.062 195.202 485.031C196.432 487.256 197.106 489.725 197.778 492.186C197.936 492.764 198.094 493.342 198.259 493.917C201.485 505.144 207.69 515.501 216.069 523.641C217.22 524.759 216.853 526.656 216.402 528.196C215.503 531.266 214.289 534.707 211.349 535.968C209.723 536.666 207.855 536.533 206.133 536.123C199.414 534.527 194.293 529.187 189.931 523.833C184.567 517.251 179.711 510.256 175.419 502.93C173.178 499.105 171.036 494.991 170.98 490.558C170.814 477.214 166.102 464.615 161.387 452.006C159.47 446.88 157.552 441.753 155.939 436.573C155.289 434.484 154.681 432.341 154.712 430.152C154.76 426.873 156.207 423.887 157.658 420.895C158.277 419.618 158.896 418.339 159.408 417.036ZM186.42 421.404C184.519 421.967 182.531 422.556 180.883 421.822C182.574 413.821 179.955 405.04 174.157 399.273C176.392 396.461 181.033 396.667 183.849 398.897C186.665 401.127 187.988 404.744 188.718 408.262C189.349 411.305 189.635 414.42 189.571 417.527C189.549 418.579 191.22 418.886 191.945 418.123C192.67 417.36 192.66 416.177 192.57 415.128C192.149 410.218 190.96 405.374 189.059 400.827C187.718 397.62 185.066 394.061 181.651 394.71L171.21 396.696C170.79 396.776 170.33 396.85 169.957 396.642C169.51 396.392 169.354 395.834 169.244 395.333C167.148 385.818 166.932 374.547 173.966 367.804C176.29 365.577 179.2 364.076 182.096 362.671C198.292 354.81 215.373 348.955 232.405 343.121C241.308 340.071 251.162 337.031 259.882 340.57L211.293 357.965C204.055 360.556 196.389 363.456 191.81 369.631C188.149 374.569 187.006 381.017 187.443 387.148C187.879 393.279 189.763 399.203 191.663 405.049C199.513 429.194 207.883 453.17 216.766 476.954C218.804 482.41 220.903 487.922 224.255 492.685C229.111 499.586 236.559 504.617 244.775 506.546C234.627 513.729 219.308 512.279 210.689 503.32C207.442 499.945 205.163 495.776 202.936 491.656C201.988 489.902 201.231 487.313 202.922 486.258C207.56 483.367 207.316 476.592 206.055 471.274C205.253 467.89 204.266 464.549 203.102 461.271C201.75 457.462 200.064 453.605 197.042 450.921C194.02 448.237 189.336 447.044 185.852 449.094C182.536 442.586 179.95 435.706 178.157 428.624C177.922 427.697 177.921 426.375 178.853 426.159C183.402 425.103 187.859 423.652 192.158 421.828C190.864 420.087 188.705 420.727 186.42 421.404ZM202.211 470.601L200.248 464.23C198.863 459.733 197.328 454.998 193.802 451.881C192.394 450.637 190.263 449.707 188.694 450.74C187.1 451.788 187.138 454.105 187.425 455.991C188.557 463.451 190.751 470.749 193.921 477.596C194.987 479.898 196.202 482.202 198.085 483.901C198.552 484.323 199.084 484.715 199.705 484.818C201.029 485.036 202.189 483.877 202.784 482.674C204.616 478.969 203.428 474.551 202.211 470.601ZM243.226 483.586C246.72 488.675 252.45 492.167 258.575 492.938C260.484 493.179 261.133 495.579 261.336 497.493C257.315 497.479 253.429 495.864 250.106 493.6C246.783 491.336 243.95 488.437 241.151 485.55C240.258 484.629 239.361 483.699 238.669 482.62C236.659 479.486 236.617 475.527 236.64 471.805C237.783 471.057 239.387 471.972 239.965 473.209C240.386 474.109 240.456 475.109 240.526 476.11C240.553 476.485 240.579 476.86 240.624 477.23C240.902 479.525 241.918 481.68 243.226 483.586ZM233.96 470.747C232.644 471.9 232.405 473.848 232.477 475.596C232.722 481.511 235.571 487.181 239.829 491.294C244.087 495.407 249.672 498.015 255.479 499.168C256.903 499.45 258.439 499.637 259.758 499.032C255.833 498.502 252.036 497.036 248.774 494.788C247.536 493.935 246.377 492.974 245.224 492.009C242.178 489.458 239.117 486.816 236.99 483.461C234.615 479.713 233.53 475.163 233.96 470.747ZM257.544 491.093C252.852 490.12 248.527 487.464 245.537 483.72C243.367 481.005 241.867 477.417 242.78 474.064C244.348 474.368 245.572 475.92 245.504 477.515C245.347 481.167 247.777 484.784 251.218 486.02C251.906 486.268 252.621 486.426 253.336 486.585C254.097 486.753 254.858 486.922 255.585 487.197C256.997 487.731 258.355 488.837 258.523 490.337C258.548 490.563 258.535 490.819 258.376 490.981C258.171 491.19 257.83 491.152 257.544 491.093ZM233.418 492.15C232.491 491.734 231.486 491.561 230.479 491.387C229.646 491.243 228.81 491.1 228.017 490.817C227.349 490.579 226.709 491.483 226.963 492.145C227.218 492.808 227.99 493.127 228.699 493.157C229.083 493.172 229.464 493.126 229.846 493.079C230.17 493.039 230.494 492.999 230.82 492.997C233.359 492.985 235.505 495.755 234.859 498.21C234.611 499.153 235.661 500.162 236.593 499.876C237.701 497.012 236.22 493.407 233.418 492.15ZM247.626 477.508C249.377 478.658 250.881 480.139 252.372 481.61L254.527 483.735C254.906 484.109 255.297 484.724 254.93 485.108C250.93 485.406 247.17 481.493 247.626 477.508ZM236.076 489.504C233.856 486.83 231.678 484.016 230.577 480.719C229.477 477.423 229.623 473.519 231.77 470.786C230.656 469.582 228.683 469.284 227.264 470.107C225.844 470.931 225.122 472.79 225.614 474.356C226.527 477.259 224.592 480.729 221.643 481.48C223.418 477.978 223.998 473.883 223.265 470.026C223.213 469.75 223.138 469.45 222.91 469.286C222.426 468.937 221.798 469.475 221.492 469.986C219.666 473.035 219.759 476.933 220.903 480.297C222.047 483.661 224.131 486.612 226.186 489.511C231.351 487.828 237.58 491.298 238.868 496.575C239.984 501.147 244.55 504.294 249.217 504.898C253.885 505.502 258.585 503.996 262.811 501.923C255.255 500.905 247.288 499.718 241.338 494.951C239.364 493.37 237.692 491.449 236.076 489.504ZM233 495.891C233.138 496.581 231.945 496.899 231.558 496.312L231.474 496.327C230.519 496.086 229.741 495.252 229.566 494.283C230.866 494.316 232.142 494.914 233 495.891ZM219.155 470.499C219.115 470.008 218.542 469.641 218.079 469.809C217.852 470.52 218.033 471.346 218.537 471.896C219.185 471.903 219.616 470.993 219.201 470.496L219.155 470.499ZM204.168 501.012C204.168 501.004 204.168 500.997 204.168 500.989L204.168 500.97L204.143 501.028C204.151 501.028 204.16 501.028 204.169 501.028C204.189 501.739 204.592 502.43 205.204 502.794C205.579 502.072 204.978 501.057 204.169 501.028C204.169 501.023 204.168 501.017 204.168 501.012ZM171.922 401.915C175.549 406.406 177.659 412.1 177.834 417.87C177.866 418.925 177.452 420.356 176.4 420.256C176.002 420.218 175.671 419.943 175.386 419.664C172.686 417.018 171.761 413.1 170.957 409.406C170.394 406.825 169.984 403.712 171.922 401.915Z" fill="#00160A"/>
</g>
<g id="stars">
<path id="Stroke_6" fill-rule="evenodd" clip-rule="evenodd" d="M205.432 244.529C207.073 247.737 210.028 250.247 213.46 251.346C213.445 251.746 213.43 252.146 213.415 252.546C210.462 254.332 208.873 258.115 209.664 261.474C209.907 262.508 208.429 263.238 207.469 262.783C206.509 262.328 206.026 261.267 205.574 260.306C205.006 259.099 204.352 257.9 203.367 257.001C202.382 256.102 201.008 255.539 199.703 255.814C198.747 256.015 197.872 254.998 197.888 254.021C197.905 253.044 198.538 252.187 199.236 251.504C199.934 250.82 200.736 250.219 201.255 249.391C201.862 248.423 202.019 247.244 202.083 246.103C202.123 245.392 202.139 244.652 202.46 244.016C202.781 243.38 203.516 242.886 204.196 243.098C204.815 243.292 205.137 243.951 205.432 244.529L205.432 244.529Z" fill="#00160A"/>
<path id="Stroke_7" fill-rule="evenodd" clip-rule="evenodd" d="M604.936 277.585C605.074 278.762 605.363 280.408 604.225 280.734C603.163 281.038 602.487 279.673 602.042 278.662C600.844 275.942 597.998 274.031 595.028 273.952C593.852 273.921 593.654 272.063 594.48 271.226C595.306 270.388 596.564 270.188 597.61 269.65C599.24 268.811 600.316 267.141 600.846 265.386C601.376 263.631 601.427 261.772 601.474 259.94C601.486 259.476 602.015 259.158 602.475 259.218C602.935 259.279 603.315 259.606 603.617 259.958C605.689 262.37 605.421 266.304 607.793 268.422C608.895 269.405 610.457 269.869 611.31 271.076C610.644 271.872 609.465 271.914 608.471 272.212C606.24 272.88 604.667 275.273 604.936 277.585H604.936Z" fill="#00160A"/>
<path id="Stroke_8" fill-rule="evenodd" clip-rule="evenodd" d="M265.414 269.538C267.067 270.76 267.931 272.757 269.272 274.315C270.693 275.965 272.684 277.114 274.824 277.518C271.795 279.187 269.809 282.594 269.85 286.052C269.859 286.868 269.737 287.987 268.924 288.058C268.714 288.077 268.507 288.007 268.313 287.925C265.127 286.584 263.821 281.972 260.387 281.571C259.176 281.43 258.962 279.623 259.664 278.626C260.366 277.629 261.548 277.071 262.318 276.126C263.873 274.219 263.505 271.09 265.414 269.538V269.538Z" fill="#00160A"/>
<path id="Stroke_9" fill-rule="evenodd" clip-rule="evenodd" d="M343.641 227.223C342.884 227.674 341.878 227.197 341.326 226.509C340.774 225.822 340.49 224.953 339.962 224.247C338.601 222.429 335.875 221.977 334.675 220.049C334.293 219.436 334.138 218.555 334.65 218.047C334.854 217.844 335.13 217.737 335.387 217.608C337.218 216.686 338.139 214.596 338.592 212.597C339.045 210.597 339.189 208.491 340.104 206.656C340.332 206.199 340.637 205.738 341.112 205.551C341.587 205.364 342.248 205.604 342.321 206.109C342.586 207.947 342.852 209.786 343.117 211.625C343.271 212.689 343.438 213.791 344.024 214.692C344.61 215.593 345.741 216.235 346.766 215.912C347.479 215.687 348.05 216.693 347.793 217.396C347.537 218.098 346.855 218.532 346.295 219.028C344.901 220.264 344.128 222.168 344.267 224.027C344.353 225.175 344.63 226.632 343.641 227.223V227.223Z" fill="#00160A"/>
<path id="Stroke_10" fill-rule="evenodd" clip-rule="evenodd" d="M521.699 524.17C523.839 522.409 525.284 519.824 525.663 517.079C525.806 516.044 527.474 515.999 528.105 516.831C528.736 517.663 528.651 518.812 528.619 519.856C528.576 521.216 528.692 522.639 529.385 523.81C530.078 524.981 531.483 525.82 532.803 525.486C533.321 525.354 533.807 525.932 533.769 526.466C533.73 526.999 533.342 527.441 532.929 527.781C531.315 529.103 528.898 529.691 528.136 531.633C527.868 532.319 527.86 533.074 527.722 533.797C527.583 534.52 527.257 535.278 526.597 535.605C525.938 535.931 524.94 535.529 524.938 534.793C524.93 532.229 523.65 529.7 521.589 528.174C520.992 527.732 520.277 527.286 520.145 526.555C519.966 525.571 520.927 524.805 521.699 524.17L521.699 524.17Z" fill="#00160A"/>
<path id="Stroke_11" fill-rule="evenodd" clip-rule="evenodd" d="M386.669 465.369C385.565 462.661 382.755 460.739 379.831 460.693C379.031 457.846 382.472 455.495 382.778 452.555C382.842 451.945 382.767 451.317 382.924 450.724C383.081 450.131 383.578 449.554 384.19 449.595C385.043 451.673 386.578 453.464 388.5 454.625C389 454.927 389.543 455.203 389.878 455.681C390.213 456.158 390.239 456.918 389.759 457.25C387.29 458.958 386.867 462.373 386.669 465.369Z" fill="#00160A"/>
<path id="Stroke_12" fill-rule="evenodd" clip-rule="evenodd" d="M574.879 419.072C574.515 418.862 574.116 418.66 573.697 418.691C573.32 418.72 572.973 418.936 572.596 418.944C572.218 418.952 571.797 418.55 572.008 418.237C575.634 416.31 577.106 411.966 578.261 408.026C578.45 407.675 579.029 407.773 579.256 408.101C579.482 408.429 579.468 408.86 579.47 409.259C579.48 410.988 579.987 412.749 581.087 414.084C582.187 415.419 583.917 416.275 585.64 416.123C583.026 417.924 580.175 420.1 579.783 423.251C578.422 421.573 576.751 420.149 574.879 419.072H574.879Z" fill="#00160A"/>
<path id="Stroke_13" fill-rule="evenodd" clip-rule="evenodd" d="M224.312 386.078C226.93 388.043 230.133 389.218 233.401 389.414C234.146 389.458 234.094 390.581 233.8 391.267C232.959 393.227 232.119 395.187 231.279 397.147C231.749 397.831 232.242 398.623 232.059 399.433C231.876 400.242 230.583 400.678 230.227 399.929C228.848 397.029 225.37 395.298 222.226 395.946C222.384 394.836 222.994 393.854 223.451 392.831C224.389 390.729 224.693 388.348 224.312 386.078Z" fill="#00160A"/>
<path id="Stroke_14" fill-rule="evenodd" clip-rule="evenodd" d="M279.552 445.118C279.956 444.922 280.425 444.862 280.865 444.95C281.21 447.936 283.461 450.613 286.343 451.466C285.052 454.066 284.331 456.947 284.246 459.848C283.958 460.081 283.541 459.828 283.264 459.582C281.052 457.626 278.84 455.67 276.628 453.714C278.765 451.441 279.86 448.223 279.552 445.118Z" fill="#00160A"/>
</g>
<g id="planet_s">
<path id="Ellipse 1" d="M327 393C327 411.225 314.725 427.5 296.5 427.5C278.275 427.5 261 411.225 261 393C261 374.775 275.775 360 294 360C312.225 360 327 374.775 327 393Z" fill="#00160A"/>
<path id="Path" fill-rule="evenodd" clip-rule="evenodd" d="M308.778 414.014C309.097 409.339 312.533 405.033 317.021 403.683C319.717 402.872 321.595 400.283 322.264 397.548C322.933 394.813 322.582 391.937 322.065 389.169C320.412 380.332 316.591 371.211 308.901 366.554C300.563 361.505 289.815 362.952 280.625 366.205C276.62 367.622 272.457 369.579 270.353 373.27C269.059 375.541 268.704 378.209 268.373 380.801C267.697 386.102 267.019 391.454 267.508 396.776C267.996 402.097 269.755 407.461 273.386 411.382C275.915 414.112 279.79 416.104 283.328 414.95C286.101 414.046 288.645 416.623 291.271 417.893C294.855 419.627 299.086 418.909 302.995 418.154C305.51 417.669 308.603 416.569 308.778 414.014Z" fill="white"/>
<g id="highlights">
<path id="highlight" fill-rule="evenodd" clip-rule="evenodd" d="M305.875 379.131C306.938 378.71 308.135 379.187 309.132 379.749C311.288 380.967 313.261 382.712 314.151 385.023C315.041 387.334 314.6 390.26 312.662 391.802C311.654 392.604 310.124 392.413 309.049 391.704C307.973 390.995 307.247 389.878 306.552 388.793C305.124 386.563 303.633 384.022 304.184 381.431C304.391 380.462 304.953 379.497 305.875 379.131H305.875Z" fill="#FFB61D"/>
<path id="highlight_2" fill-rule="evenodd" clip-rule="evenodd" d="M279.96 379.556C280.153 383.354 278.57 387.206 275.76 389.77C275.027 390.44 274.095 391.057 273.114 390.901C272.121 390.744 271.394 389.797 271.213 388.808C271.032 387.82 271.294 386.804 271.639 385.86C272.711 382.93 274.627 380.314 277.098 378.409C277.724 377.926 278.585 377.477 279.26 377.888C279.797 378.215 279.928 378.928 279.96 379.556V379.556Z" fill="#FFB61D"/>
<path id="highlight_3" fill-rule="evenodd" clip-rule="evenodd" d="M301.651 405.986C300.579 406.273 299.263 406.16 298.603 405.268C298.089 404.573 298.126 403.606 298.377 402.778C298.745 401.561 299.575 400.441 300.746 399.944C301.916 399.446 303.423 399.69 304.223 400.679C304.958 401.586 304.97 402.953 304.404 403.974C303.838 404.996 302.779 405.684 301.651 405.986L301.651 405.986Z" fill="#FFB61D"/>
<path id="highlight_4" fill-rule="evenodd" clip-rule="evenodd" d="M297.404 397.772C297.166 398.371 296.694 398.928 296.06 399.047C295.009 399.246 294.139 398.206 293.748 397.21C293.374 396.256 293.193 395.227 293.22 394.202C293.228 393.899 293.31 393.525 293.604 393.45C294.751 393.159 296.045 393.56 296.826 394.448C297.608 395.337 297.84 396.672 297.404 397.772H297.404Z" fill="#FFB61D"/>
<path id="highlight_5" fill-rule="evenodd" clip-rule="evenodd" d="M282.867 402.744C283.564 403.549 284.176 404.494 284.266 405.554C284.356 406.614 283.778 407.788 282.755 408.082C281.757 408.368 280.731 407.776 279.91 407.141C278.975 406.418 278.079 405.558 277.693 404.442C277.306 403.327 277.581 401.908 278.587 401.29C279.987 400.429 281.791 401.502 282.867 402.744H282.867Z" fill="#FFB61D"/>
</g>
<path id="Stroke_15" fill-rule="evenodd" clip-rule="evenodd" d="M299.083 367.334C296.923 367.442 294.802 368.11 292.938 369.206C291.447 370.082 289.563 369.64 287.898 369.173C286.29 368.722 284.681 368.271 283.072 367.82C282.971 367.332 283.554 367.009 284.029 366.861C288.737 365.396 293.671 364.371 298.582 364.813C303.493 365.256 308.408 367.312 311.522 371.135C307.608 369.151 303.465 367.116 299.083 367.334Z" fill="#00160A"/>
</g>
<g id="planet_m">
<path fill-rule="evenodd" clip-rule="evenodd" d="M475.522 545.821C474.834 546.132 473.775 546.226 473.557 545.503C476.009 544.035 478.461 542.568 480.913 541.101C479.632 543.158 477.73 544.823 475.522 545.821Z" fill="#E7EAEE"/>
<path fill-rule="evenodd" clip-rule="evenodd" d="M434.434 539.51C435.484 540.649 436.534 541.789 437.584 542.928C437.752 543.11 437.634 543.462 437.39 543.507C435.333 542.56 433.56 541.003 432.357 539.085C432.727 538.332 433.866 538.894 434.434 539.51Z" fill="#E7EAEE"/>
<path fill-rule="evenodd" clip-rule="evenodd" d="M402.135 539.495C398.101 538.305 393.689 535.4 393.934 531.201C394.103 528.291 396.495 526.047 398.833 524.307C402.046 521.916 405.493 519.841 409.11 518.122C411.567 516.955 414.44 515.545 414.915 512.867C417.691 497.21 429.599 483.551 444.691 478.544C459.783 473.537 477.427 477.329 489.215 488C491.553 490.116 494.434 492.677 497.416 491.652C503.409 489.592 510.108 488.193 515.979 490.58C518.147 491.461 520.335 493.26 520.227 495.598C520.175 496.705 519.606 497.716 519.01 498.651C515.307 504.46 509.957 509.206 503.748 512.19C500.676 513.666 498.66 516.741 497.437 519.923C496.213 523.105 495.633 526.498 494.533 529.725C490.164 542.544 477.435 551.593 463.987 553.199C450.54 554.805 436.796 549.608 426.498 540.812C425.323 539.808 423.862 538.682 422.394 539.167C415.882 541.319 408.714 541.435 402.135 539.495ZM422.638 527.648C423.31 527.973 424.085 527.983 424.831 527.974C440.981 527.785 456.453 521.9 471.525 516.095C478.062 513.577 484.6 511.059 491.137 508.541C492.471 508.027 493.949 507.374 494.454 506.036C494.785 505.157 494.608 504.174 494.38 503.263C492.381 495.298 486.652 488.516 479.507 484.467C472.362 480.419 463.917 478.974 455.725 479.551C444.536 480.339 433.381 485.065 426.155 493.643C418.929 502.222 416.226 514.822 420.662 525.124C421.094 526.127 421.654 527.172 422.638 527.648ZM492.353 518.548C473.515 527.48 453.402 533.719 432.816 537.017C431.382 537.247 430.764 539.158 431.327 540.497C431.89 541.837 433.197 542.691 434.453 543.421C442.043 547.833 450.631 550.763 459.409 550.889C468.187 551.016 477.15 548.174 483.632 542.253C490.114 536.332 493.809 527.206 492.353 518.548ZM397.305 532.842C397.804 534.361 399.358 535.257 400.851 535.83C406.703 538.077 413.221 537.5 419.432 536.656C444.501 533.253 469.049 526.034 491.969 515.324C501.152 511.033 510.473 505.826 515.91 497.271C516.381 496.529 516.836 495.699 516.747 494.825C516.559 492.985 514.269 492.259 512.421 492.173C507.842 491.958 503.306 492.978 498.836 493.992C497.277 494.345 495.332 495.193 495.477 496.785C495.636 498.532 498.086 498.859 499.781 498.408C501.476 497.957 503.574 497.337 504.752 498.637C506.363 500.415 504.144 503.052 502.108 504.321C486.72 513.91 469.312 519.673 452.093 525.35C448.03 526.689 443.957 528.031 439.766 528.891C436.169 529.63 432.51 530.008 428.857 530.385C425.44 530.738 422.023 531.091 418.606 531.444C416.874 531.623 415.073 531.793 413.437 531.2C411.8 530.606 410.389 529.005 410.616 527.279C410.867 525.368 412.818 524.262 414.276 523.003C415.734 521.743 416.726 519.195 415.156 518.079C409.812 520.253 404.796 523.229 400.328 526.878C398.487 528.381 396.564 530.584 397.305 532.842ZM497.9 504.276C499.321 503.379 500.741 502.481 502.162 501.584C502.596 501.309 503.095 500.862 502.912 500.382C502.752 499.961 502.198 499.889 501.748 499.885C500.45 499.874 499.009 499.917 498.072 500.814C497.152 501.695 497.072 503.309 497.9 504.276ZM413.682 526.991C413.577 527.105 413.469 527.224 413.424 527.372C413.226 528.006 414.209 528.343 414.84 528.133C415.47 527.923 416.182 527.516 416.736 527.882C417.535 528.41 418.655 527.316 418.363 526.405C418.07 525.493 416.911 525.102 415.985 525.345C415.059 525.587 414.331 526.287 413.682 526.991Z" fill="#00160A"/>
</g>
<g id="planet_xl">
<path fill-rule="evenodd" clip-rule="evenodd" d="M519.248 280.159C526.761 294.661 524.504 312.071 522.058 328.219C536.232 335.414 548.458 346.403 557.119 359.732C559.811 363.876 562.242 368.9 560.697 373.594C558.822 379.289 552.143 381.654 546.247 382.747C531.485 385.484 516.15 385.086 501.55 381.588C496.038 380.267 489.749 378.637 485.09 381.865C464.541 396.104 436.075 397.343 413.768 386.055C391.461 374.767 375.81 351.808 372.161 327.075C371.464 322.353 367.251 319.089 363.501 316.135C350.664 306.026 339.601 293.672 330.963 279.802C327.354 274.006 324.083 266.908 326.647 260.58C329.61 253.269 338.731 250.861 346.613 250.535C364.126 249.81 381.828 254.693 396.493 264.295C406.58 251.745 421.181 242.904 436.976 239.78C452.772 236.657 469.639 239.276 483.743 247.042C490.749 250.899 497.032 255.941 503.029 261.232C509.296 266.762 515.404 272.738 519.248 280.159ZM531.7 363.782C528.578 368.577 522.117 369.744 516.397 369.897C499.022 370.362 481.983 365.586 465.258 360.853C453.596 357.552 441.878 354.231 430.864 349.172C424.177 346.1 417.795 342.407 411.495 338.604C388.975 325.009 365.998 308.185 357.676 283.23C356.05 278.356 359.328 272.824 363.965 270.612C368.603 268.4 374.112 268.893 379.018 270.42C381.565 271.213 384.128 272.282 386.789 272.092C389.45 271.902 392.236 269.899 392.153 267.233C392.066 264.427 389.12 262.703 386.532 261.615C371.891 255.46 355.783 251.955 340.054 254.157C336.724 254.623 333.187 255.476 330.964 258C326.94 262.569 329.287 269.71 332.208 275.053C344.503 297.542 363.632 315.762 385.021 329.883C406.41 344.005 430.093 354.267 453.99 363.534C482.925 374.754 513.782 384.773 544.486 380.257C547.557 379.805 550.688 379.178 553.317 377.529C555.946 375.88 558.002 372.999 557.865 369.899C557.772 367.805 556.724 365.885 555.64 364.091C547.3 350.291 535.167 338.808 520.929 331.24C520.236 333.873 519.544 336.506 518.851 339.139C523.185 341.97 527.633 344.911 530.555 349.184C533.477 353.457 534.524 359.444 531.7 363.782ZM517.6 328.887C518.407 328.125 518.729 326.993 518.994 325.915C521.844 314.324 522.039 302.088 519.559 290.413C515 291.515 510.442 292.616 505.883 293.718C503.715 294.242 501.521 294.77 499.29 294.765C496.581 294.758 493.943 293.969 491.268 293.543C485.286 292.59 479.181 293.459 473.187 294.329C470.87 294.665 468.576 293.669 466.526 292.539C452.117 284.593 442.741 269.192 427.873 262.145C426.287 261.394 424.626 260.729 423.29 259.593C420.575 257.282 419.579 253.352 416.707 251.239C418.931 260.308 426.023 267.36 433.506 272.946C440.99 278.532 449.25 283.246 455.563 290.126C458.798 293.651 463.711 295.1 468.451 295.745C473.191 296.389 478.05 296.393 482.645 297.725C486.142 298.74 489.544 300.529 493.181 300.342C496.56 300.169 499.588 298.313 502.806 297.269C507.514 295.741 512.587 295.97 517.53 296.214C518.529 296.263 519.802 296.545 519.948 297.534C520.123 298.72 518.516 299.263 517.318 299.278C511.504 299.351 505.054 297.997 500.346 301.408C496.706 304.046 491.72 303.853 487.366 302.734C483.012 301.616 478.844 299.689 474.376 299.187C471.203 298.831 467.97 299.207 464.819 298.692C456.02 297.254 449.939 289.488 443.068 283.808C437.788 279.443 431.702 276.147 426.342 271.883C420.981 267.618 416.199 262.03 415.016 255.283C414.71 253.536 412.061 254.032 410.558 254.973C406.875 257.28 403.15 259.622 400.155 262.771C397.161 265.921 394.928 270.018 394.897 274.364C394.855 280.406 399.593 286.134 405.537 287.225C410.569 288.148 410.499 297.584 415.61 297.807C418.896 297.95 420.606 301.633 422.076 304.574C423.547 307.515 426.907 310.591 429.68 308.823C431.484 307.672 433.78 308.96 435.659 309.985C437.538 311.01 440.4 311.511 441.383 309.611C437.513 308.95 435.42 303.583 437.821 300.476C439.63 298.135 442.9 297.555 445.858 297.479C449.325 297.391 452.945 297.804 455.876 299.66C458.806 301.516 460.842 305.112 460.011 308.48C459.046 312.388 459.781 316.686 461.989 320.052C463.773 318.906 465.557 317.759 467.341 316.612C469.736 315.073 472.218 313.5 475.027 313.041C477.835 312.583 481.081 313.537 482.456 316.028C483.833 318.523 482.977 321.608 482.092 324.317C486.811 322.553 492.407 323.366 496.427 326.402C501.72 330.398 508.902 331.77 515.296 330.005C516.128 329.775 516.974 329.48 517.6 328.887ZM491.697 256.481C490.797 255.967 489.663 255.474 488.779 256.015C485.627 257.943 481.585 257.547 478.025 256.558C474.465 255.568 470.992 254.042 467.301 253.888C464.523 253.772 461.766 254.444 458.986 254.445C452.38 254.447 446.42 250.734 440.872 247.148C440.16 246.688 439.412 246.188 439.057 245.418C438.702 244.648 438.948 243.539 439.755 243.282C445.41 249.389 454.059 252.582 462.326 251.615C464.597 251.349 466.858 250.79 469.138 250.95C472.387 251.179 475.336 252.836 478.434 253.841C481.532 254.846 485.309 255.06 487.68 252.826C468.892 238.48 441.274 236.922 420.991 249.064C420.677 249.252 420.317 249.567 420.445 249.91C422.509 255.455 428.307 258.466 433.296 261.648C444.597 268.858 453.581 279.125 464.082 287.459C467.285 290.001 471.235 292.492 475.196 291.475C480.863 290.021 486.855 289.848 492.596 290.975C495.12 291.47 497.63 292.216 500.202 292.172C505.495 292.081 510.398 288.663 515.679 289.022C517.216 289.127 518.447 287.542 518.523 286.004C518.599 284.466 517.85 283.018 517.078 281.685C511.029 271.249 502.175 262.456 491.697 256.481ZM408.209 364.198C412.921 367.052 419.191 365.021 424.346 366.963C426.847 367.906 429.062 369.776 431.729 369.956C434.073 370.114 436.356 368.915 438.699 369.094C440.926 369.265 442.845 370.637 444.748 371.807C452.304 376.455 461.449 378.467 470.258 377.419C472.575 377.143 474.693 378.609 476.914 379.324C479.135 380.04 482.309 379.413 482.617 377.101C469.954 373.498 457.748 368.474 445.574 363.46C420.373 353.081 394.789 342.48 373.524 325.432C374.784 329.564 376.045 333.696 377.305 337.827C378.875 342.974 380.452 348.141 382.752 353.006C391.852 372.258 411.643 384.87 432.364 389.782C441.518 391.952 451.29 392.785 460.228 389.849C454.275 389.355 449.922 384.072 444.38 381.843C438.66 379.543 431.621 380.475 426.823 376.603C420.993 371.898 410.805 373.499 407.04 367.022C406.336 365.81 407.011 363.472 408.209 364.198ZM395.435 301.296C395.49 304.3 397.188 307.224 399.771 308.761C401.002 309.494 402.439 309.95 403.416 310.998C404.574 312.24 404.83 314.237 404.022 315.731C402.664 318.242 399.222 318.633 396.392 318.253C394.836 318.044 393.269 317.685 391.916 316.889C390.119 315.833 388.846 314.102 387.428 312.574C384.368 309.277 380.44 306.793 376.149 305.443C376.481 308.716 379.135 311.21 381.666 313.312C392.68 322.459 404.689 330.34 416.963 337.712C420.971 340.119 425.013 342.476 429.183 344.589C444.467 352.336 461.202 356.694 477.788 360.998C483.784 362.553 489.779 364.109 495.775 365.664C496.603 365.879 497.486 366.093 498.299 365.827C499.177 365.54 499.784 364.758 500.332 364.015C504.25 358.698 507.981 353.244 511.516 347.665C511.686 347.396 511.863 347.094 511.808 346.78C511.734 346.361 511.29 346.13 510.898 345.961C504.456 343.19 498.013 340.418 491.57 337.647C490.412 337.149 489.207 336.641 487.948 336.684C486.446 336.735 485.095 337.555 483.678 338.054C474.851 341.162 465.754 331.664 456.552 333.365C453.519 333.926 450.846 335.665 447.926 336.656C445.006 337.648 441.351 337.697 439.292 335.401C438.1 334.071 437.699 332.237 436.999 330.594C436.299 328.951 435 327.291 433.215 327.218C432.34 327.183 431.503 327.542 430.643 327.707C427.253 328.359 424.018 325.956 421.862 323.258C419.707 320.561 418.043 317.368 415.238 315.354C412.046 313.061 407.752 312.587 404.783 310.011C401.774 307.401 400.645 303.063 397.511 300.603C396.967 300.176 396.102 299.846 395.658 300.376C395.45 300.623 395.429 300.973 395.435 301.296ZM478.539 325.379C477.904 323.346 480.278 321.442 480.084 319.321C479.846 316.708 476.225 316.073 473.698 316.777C471.271 317.454 469.002 318.689 467.117 320.361C464.945 322.288 461.999 324.963 459.677 323.22C459.067 322.761 458.683 322.068 458.352 321.381C456.251 317.019 455.563 311.99 456.414 307.224C456.837 304.856 455.011 302.551 452.801 301.602C450.591 300.653 448.094 300.738 445.691 300.838C444.166 300.902 442.513 301.015 441.363 302.018C440.213 303.021 440.103 305.253 441.51 305.845C443.555 306.705 444.696 309.271 443.966 311.365C441.593 313.719 437.745 313.383 434.44 312.883C431.88 312.495 429.32 312.108 426.76 311.72C424.892 311.438 422.916 311.106 421.489 309.869C418.699 307.448 418.735 302.225 415.229 301.062C414.288 300.75 413.254 300.825 412.307 300.531C407.566 299.06 408.332 290.228 403.441 289.386C395.688 288.051 390.16 279.208 392.357 271.654C385.172 280.96 379.553 291.472 375.807 302.616C380.811 303.613 385.495 306.155 389.057 309.808C390.841 311.637 392.433 313.798 394.767 314.84C397.101 315.881 400.495 315.135 401.135 312.661C398.191 312.352 395.769 310.143 394.155 307.663C393.047 305.96 392.196 303.999 392.276 301.97C392.357 299.941 393.558 297.865 395.488 297.232C398.055 296.391 400.75 298.294 402.286 300.517C403.822 302.739 404.755 305.398 406.66 307.313C408.587 309.25 411.264 310.188 413.702 311.419C417.394 313.283 420.686 315.933 423.295 319.142C425.111 321.376 426.911 324.079 429.749 324.562C432.347 325.003 435.239 323.407 437.534 324.703C440.947 326.629 439.831 333.14 443.586 334.262C445.238 334.756 446.933 333.819 448.482 333.064C455.71 329.542 464.594 329.637 471.745 333.311C473.637 334.283 475.49 335.514 477.608 335.715C481.025 336.039 484.119 333.618 487.533 333.27C491.473 332.868 495.084 335.227 498.553 337.137C502.411 339.262 506.517 340.934 510.761 342.109C511.506 342.315 512.31 342.504 513.038 342.247C513.935 341.93 514.474 341.029 514.875 340.166C515.974 337.804 516.609 335.227 516.733 332.624C509.407 333.804 500.981 334.689 495.428 329.768C492.723 327.37 488.929 326.252 485.355 326.8C482.829 327.187 479.301 327.819 478.539 325.379ZM364.623 289.971C366.915 293.701 369.207 297.431 371.5 301.161C371.78 301.617 372.257 302.141 372.746 301.926C373.035 301.8 373.161 301.467 373.259 301.168C376.15 292.375 380.23 283.975 385.353 276.267C385.713 275.725 384.98 275.127 384.375 274.886C382.58 274.171 380.781 273.455 378.92 272.934C375.282 271.915 371.432 271.66 367.692 272.19C365.079 272.561 362.215 273.56 361.112 275.957C360.605 277.06 360.55 278.316 360.632 279.527C360.752 281.323 361.156 283.099 361.823 284.77C362.554 286.601 363.591 288.291 364.623 289.971ZM527.942 364.318C530.621 362.812 531.476 359.168 530.649 356.208C529.822 353.248 527.701 350.843 525.548 348.651C523.184 346.243 520.701 343.953 518.111 341.791C513.812 350.064 508.912 358.025 503.462 365.591C503.115 366.073 503.419 366.801 503.928 367.107C504.438 367.413 505.067 367.415 505.662 367.402C512.14 367.268 518.606 366.552 524.957 365.268C525.985 365.061 527.028 364.831 527.942 364.318ZM418.911 369.803C422.744 370.122 425.751 373.093 429.21 374.775C435.672 377.917 443.885 376.592 449.763 380.722C451.573 381.994 453.049 383.722 454.969 384.82C457.047 386.009 459.487 386.368 461.87 386.601C466.696 387.072 472.238 386.833 475.43 383.183C475.611 382.976 475.785 382.753 475.863 382.49C476.256 381.158 474.247 380.565 472.861 380.643C461.839 381.264 450.213 379.572 441.298 373.062C438.962 371.356 435.745 373.047 432.854 373.11C429.873 373.174 427.199 371.445 424.455 370.278C420.632 368.65 416.37 368.067 412.25 368.608C413.844 370.299 416.596 369.611 418.911 369.803Z" fill="#00160A"/>
<path fill-rule="evenodd" clip-rule="evenodd" d="M445.439 347.643C442.911 345.352 440.383 343.061 437.856 340.77C437.032 340.024 436.34 338.429 437.393 338.072C438.484 340.129 440.92 341.113 443.233 341.381C445.546 341.649 447.901 341.369 450.208 341.69C452.393 341.993 454.463 342.825 456.538 343.574C467.984 347.707 480.161 349.488 491.67 353.44C492.345 353.672 493.117 354.02 493.261 354.719C493.422 355.5 492.688 356.165 491.989 356.55C488.401 358.523 483.551 357.852 480.635 354.977C479.229 353.591 476.923 354.556 475.022 355.09C471.52 356.073 467.795 355.23 464.257 354.387C460.512 353.493 456.767 352.6 453.022 351.707C451.717 351.396 450.398 351.08 449.199 350.478C447.791 349.772 446.606 348.701 445.439 347.643ZM487.646 355.71C488.241 355.441 487.563 354.589 486.948 354.369C480.9 352.211 474.758 350.1 468.366 349.487C465.05 349.169 461.777 348.416 458.655 347.254C454.471 345.696 450.222 343.359 445.821 344.109C446.2 346.501 448.51 348.152 450.845 348.798C453.179 349.444 455.653 349.363 458.032 349.822C461.017 350.397 463.77 351.803 466.67 352.717C469.57 353.631 472.86 354.014 475.549 352.595C477.454 351.589 479.808 352.22 481.739 353.174C483.671 354.128 485.513 355.406 487.646 355.71Z" fill="#00160A"/>
</g>
<g id="satelite">
<path id="border_shape" fill-rule="evenodd" clip-rule="evenodd" d="M656.88 408.929C656.377 407.681 654.254 408.26 653.851 409.543C653.464 410.773 654.046 412.061 654.58 413.246L654.65 413.4C660.253 425.86 655.792 442.009 644.588 449.827C643.238 449.001 642.269 447.704 641.303 446.412C640.227 444.971 639.155 443.536 637.565 442.77C636.175 442.099 634.579 442.045 633.037 442.003L619.281 441.627C617.608 441.581 615.594 441.718 614.781 443.181C613.011 446.371 608.277 447.643 605.41 445.387C602.543 443.131 603.034 437.739 606.43 436.406C606.682 436.308 606.944 436.229 607.207 436.15C607.779 435.979 608.35 435.807 608.804 435.429C609.398 434.935 609.685 434.172 609.947 433.445L615.285 418.662C615.62 417.734 615.96 416.779 615.936 415.792C615.888 413.78 614.368 412.127 612.81 410.855C612.562 410.653 612.31 410.453 612.057 410.253C610.715 409.192 609.353 408.115 608.614 406.592C607.734 404.783 608.25 402.104 610.176 401.523C620.281 398.476 631.64 396.542 641.047 401.326C641.31 401.46 641.573 401.599 641.836 401.739C643.187 402.454 644.558 403.181 646.069 403.224C647.875 403.274 649.872 401.797 649.542 400.02C649.332 398.885 648.311 398.048 647.333 397.246C646.158 396.283 645.044 395.369 645.471 394.049C645.639 393.528 646.042 393.121 646.432 392.736L658.405 380.904C658.819 378.666 655.565 377.443 653.469 378.33C652.431 378.769 651.537 379.469 650.643 380.169C649.732 380.882 648.822 381.595 647.759 382.032C643.502 383.779 638.944 380.547 635.574 377.414C623.512 366.199 612.814 353.519 603.791 339.74C603.377 339.108 602.95 338.413 603.005 337.659C603.075 336.691 603.9 335.974 604.662 335.373L624.569 319.653C626.172 318.387 628.681 317.178 630.001 318.737L666.659 362.03C667.241 362.718 667.844 363.447 668.025 364.33C668.397 366.146 666.882 367.788 665.349 368.828C665.11 368.99 664.865 369.15 664.618 369.31C663.282 370.18 661.908 371.074 661.315 372.522C660.612 374.237 662.144 376.766 663.859 376.063C672.64 369.756 681.818 363.276 692.466 361.404C694.481 361.05 696.671 360.895 698.464 361.88C702.454 364.071 701.893 369.947 700.376 374.239C697.609 382.07 693.506 389.428 688.299 395.898C687.262 397.187 686.109 398.737 686.547 400.332C687.167 402.587 690.298 402.865 692.54 402.196C692.894 402.09 693.254 401.973 693.617 401.855C695.549 401.226 697.567 400.568 699.323 401.458C700.246 401.926 700.92 402.758 701.565 403.566L734.286 444.538C726.75 450.464 719.08 456.218 711.282 461.794C710.512 462.345 709.652 462.92 708.708 462.842C707.59 462.749 706.773 461.787 706.087 460.899L674.707 420.303C673.368 418.572 674.629 415.984 676.352 414.635C676.975 414.147 677.659 413.73 678.341 413.314C679.546 412.579 680.745 411.848 681.593 410.738C682.922 408.999 682.569 405.757 680.406 405.429C679.176 405.242 678.045 406.097 677.157 406.968C676.462 407.649 675.801 408.378 675.14 409.106C673.438 410.981 671.737 412.856 669.466 413.909C664.887 416.031 658.767 413.61 656.88 408.929ZM612.915 434.15C612.855 434.307 612.793 434.468 612.796 434.636C612.804 435.115 613.353 435.437 613.83 435.388C614.306 435.339 614.713 435.035 615.093 434.743L625.23 426.955C625.758 426.55 626.336 426.046 626.333 425.38C626.33 424.861 625.967 424.422 625.623 424.032L621.169 418.986C620.937 418.723 620.687 418.448 620.352 418.345C619.435 418.062 618.728 419.148 618.381 420.042L612.915 434.15ZM629.264 429.297C629.556 429.411 629.772 429.659 629.976 429.897L636.025 436.986C636.177 437.557 635.359 437.844 634.768 437.855L618.617 438.168C617.825 438.183 616.992 438.189 616.299 437.807C619.344 434.045 623.414 431.121 627.951 429.435C628.374 429.278 628.845 429.132 629.264 429.297Z" fill="white"/>
<path id="Stroke_16" fill-rule="evenodd" clip-rule="evenodd" d="M657.88 406.929C657.377 405.681 655.254 406.26 654.851 407.543C654.448 408.826 655.098 410.173 655.65 411.4C661.253 423.86 656.792 440.009 645.588 447.827C642.732 446.08 641.581 442.224 638.565 440.77C637.175 440.099 635.579 440.045 634.037 440.003C629.451 439.877 624.866 439.752 620.281 439.627C618.608 439.581 616.594 439.718 615.781 441.181C614.011 444.371 609.277 445.643 606.41 443.387C603.543 441.131 604.034 435.739 607.43 434.406C608.232 434.092 609.142 433.98 609.804 433.429C610.398 432.935 610.685 432.172 610.947 431.445C612.727 426.517 614.506 421.59 616.285 416.662C616.62 415.734 616.96 414.779 616.936 413.792C616.888 411.78 615.368 410.127 613.81 408.855C612.251 407.582 610.493 406.402 609.614 404.592C608.734 402.783 609.25 400.104 611.176 399.523C621.281 396.476 632.64 394.542 642.047 399.326C643.657 400.145 645.263 401.173 647.069 401.224C648.875 401.274 650.872 399.797 650.542 398.02C650.079 395.522 645.69 394.468 646.471 392.049C646.639 391.528 647.042 391.121 647.432 390.736C651.423 386.792 655.414 382.848 659.405 378.904C659.819 376.666 656.565 375.443 654.469 376.33C652.373 377.216 650.864 379.167 648.759 380.032C644.502 381.779 639.944 378.547 636.574 375.414C624.512 364.199 613.814 351.519 604.791 337.74C604.377 337.108 603.95 336.413 604.005 335.659C604.075 334.691 604.9 333.974 605.662 333.373C612.298 328.133 618.934 322.893 625.569 317.653C627.172 316.387 629.681 315.178 631.001 316.737C643.22 331.168 655.439 345.599 667.659 360.03C668.241 360.718 668.844 361.447 669.025 362.33C669.397 364.146 667.882 365.788 666.349 366.828C664.815 367.869 663.017 368.807 662.315 370.522C661.612 372.237 663.144 374.766 664.859 374.063C673.64 367.756 682.818 361.276 693.466 359.404C695.481 359.05 697.671 358.895 699.464 359.88C703.454 362.071 702.893 367.947 701.376 372.239C698.609 380.07 694.506 387.428 689.299 393.898C688.262 395.187 687.109 396.737 687.547 398.332C688.167 400.587 691.298 400.865 693.54 400.196C695.781 399.528 698.237 398.401 700.323 399.458C701.246 399.926 701.92 400.758 702.565 401.566C713.472 415.223 724.379 428.881 735.286 442.538C727.75 448.464 720.08 454.218 712.282 459.794C711.512 460.345 710.652 460.92 709.708 460.842C708.59 460.749 707.773 459.787 707.087 458.899C696.627 445.367 686.167 431.835 675.707 418.303C674.368 416.572 675.629 413.984 677.352 412.635C679.075 411.286 681.264 410.476 682.593 408.738C683.922 406.999 683.569 403.757 681.406 403.429C680.176 403.242 679.045 404.097 678.157 404.968C675.674 407.401 673.619 410.447 670.466 411.909C665.887 414.031 659.767 411.61 657.88 406.929ZM647.387 443.469C653.769 436.11 657.773 425.853 654.984 416.519C652.648 408.706 645.767 402.722 637.979 400.304C630.191 397.886 621.654 398.724 613.952 401.404C613.26 401.646 612.451 402.058 612.424 402.791C612.407 403.242 612.709 403.635 612.996 403.984C623.793 417.13 634.591 430.276 645.388 443.421C645.654 443.745 645.977 444.098 646.396 444.1C646.801 444.102 647.122 443.775 647.387 443.469ZM697.387 370.914C693.298 370.542 690.044 366.196 690.838 362.169C675.14 369.207 661.034 379.77 649.861 392.853C654.207 398.682 659.084 404.116 664.411 409.065C664.96 409.576 665.57 410.107 666.317 410.181C667.127 410.261 667.876 409.783 668.542 409.316C681.338 400.355 691.619 387.842 697.926 373.551C698.353 372.585 698.439 371.009 697.387 370.914ZM639.941 359.083C640.819 358.36 641.78 357.456 641.704 356.322C641.648 355.485 641.032 354.807 640.451 354.203C637.856 351.509 635.262 348.815 632.668 346.121C631.93 345.355 630.712 345.231 629.693 345.537C628.675 345.843 627.809 346.506 626.967 347.156C626.316 347.659 625.642 348.663 626.291 349.168C629.797 351.897 632.944 355.087 635.627 358.629C636.116 359.274 636.666 359.981 637.462 360.13C638.374 360.3 639.224 359.673 639.941 359.083ZM649.325 375.103C650.361 375.316 651.342 374.614 652.168 373.954C652.873 373.39 653.646 372.686 653.61 371.784C653.586 371.172 653.187 370.649 652.805 370.171C650.189 366.892 647.573 363.613 644.957 360.334C644.776 360.107 644.572 359.866 644.287 359.806C644.003 359.746 643.718 359.886 643.464 360.028C642.414 360.614 641.424 361.308 640.514 362.096C640.144 362.416 639.768 362.786 639.678 363.266C639.572 363.826 639.88 364.373 640.184 364.855C642.302 368.212 644.831 371.31 647.697 374.058C648.169 374.51 648.684 374.972 649.325 375.103ZM612.915 433.15C612.855 433.307 612.793 433.468 612.796 433.636C612.804 434.115 613.353 434.437 613.83 434.388C614.306 434.339 614.713 434.035 615.093 433.743C618.472 431.147 621.851 428.551 625.23 425.955C625.758 425.55 626.336 425.046 626.333 424.38C626.33 423.861 625.967 423.422 625.623 423.032C624.138 421.35 622.654 419.668 621.169 417.986C620.937 417.723 620.687 417.448 620.352 417.345C619.435 417.062 618.728 418.148 618.381 419.042C616.559 423.745 614.737 428.447 612.915 433.15ZM629.976 428.897C629.772 428.659 629.556 428.411 629.264 428.297C628.845 428.132 628.374 428.278 627.951 428.435C623.414 430.121 619.344 433.045 616.299 436.807C616.992 437.189 617.825 437.183 618.617 437.168C624.001 437.064 629.384 436.959 634.768 436.855C635.359 436.844 636.177 436.557 636.025 435.986C634.008 433.623 631.992 431.26 629.976 428.897ZM615.602 330.182C615.237 330.546 614.846 330.966 614.839 331.483C614.834 331.831 615.008 332.153 615.178 332.458C617.064 335.851 618.95 339.245 620.836 342.638C621.243 343.371 621.669 344.125 622.334 344.635C623 345.145 623.975 345.348 624.678 344.892C625.657 344.258 626.635 343.623 627.613 342.989C628.335 342.52 629.1 341.464 628.401 340.961C624.358 338.052 621.065 334.11 618.919 329.615C618.634 329.018 617.827 328.831 617.196 329.031C616.565 329.231 616.071 329.714 615.602 330.182ZM633.412 364.441C634.223 363.638 634.262 362.292 633.813 361.243C633.363 360.194 632.522 359.371 631.701 358.578C629.458 356.412 627.215 354.246 624.972 352.079C624.347 351.476 623.7 350.857 622.891 350.539C622.082 350.221 621.062 350.277 620.46 350.904C619.343 352.071 620.386 353.962 621.427 355.198C623.444 357.593 625.462 359.989 627.48 362.384C628.242 363.289 629.036 364.22 630.098 364.743C631.16 365.267 632.571 365.275 633.412 364.441ZM637.495 335.857C639.057 335.831 640.06 333.973 639.797 332.432C639.535 330.891 638.431 329.649 637.373 328.498C635.2 326.132 633.026 323.767 630.853 321.401C630.142 320.628 629.201 319.781 628.188 320.055C627.296 320.296 626.841 321.362 626.965 322.277C627.089 323.193 627.638 323.987 628.171 324.742C630.257 327.695 632.343 330.648 634.43 333.602C635.193 334.683 636.172 335.879 637.495 335.857ZM678.938 416.868C678.878 417.228 679.089 417.572 679.291 417.877C681.351 420.983 683.41 424.089 685.47 427.196C686.085 428.123 687.279 428.625 688.372 428.416C689.464 428.207 690.389 427.299 690.618 426.211C690.949 424.641 689.939 423.135 688.982 421.847C687.262 419.535 685.542 417.222 683.823 414.909C683.288 414.189 682.195 414.095 681.372 414.451C680.548 414.807 679.931 415.506 679.342 416.183C679.165 416.385 678.982 416.603 678.938 416.868ZM696.022 423.564C696.619 423.156 697.249 422.707 697.512 422.032C697.956 420.892 697.185 419.67 696.449 418.692C694.717 416.389 692.969 414.097 691.205 411.818C690.483 410.885 689.659 409.89 688.502 409.659C687.482 409.456 686.36 409.973 685.852 410.88C685.344 411.787 685.488 413.014 686.194 413.778C688.903 416.71 691.153 420.065 692.839 423.684C693.353 424.787 695.018 424.251 696.022 423.564ZM607.747 336.921C607.946 337.852 608.581 338.619 609.196 339.345C611.676 342.276 614.156 345.206 616.636 348.137C616.829 348.365 617.025 348.596 617.273 348.762C617.87 349.163 618.737 349.097 619.266 348.612C619.796 348.127 619.937 347.268 619.59 346.639C617.433 342.732 615.277 338.824 613.121 334.916C612.456 333.712 610.858 333.12 609.569 333.601C608.28 334.082 607.461 335.576 607.747 336.921ZM707.929 441.745C707.567 442.148 707.181 442.607 707.194 443.149C707.205 443.611 707.506 444.009 707.793 444.371C709.809 446.911 711.834 449.444 713.868 451.97C714.206 452.389 714.561 452.823 715.051 453.046C716.239 453.59 717.558 452.701 718.561 451.864C719.003 451.494 719.488 451.028 719.433 450.455C719.401 450.117 719.182 449.83 718.972 449.563C716.626 446.583 714.281 443.604 711.935 440.625C711.443 440 710.483 439.924 709.751 440.235C709.019 440.546 708.462 441.155 707.929 441.745ZM622.372 328.937C623.888 333.056 626.672 336.899 630.667 338.718C631.65 339.166 633.074 339.346 633.575 338.39C634.081 337.424 633.123 336.377 632.326 335.632C629.161 332.672 627.274 328.629 625.463 324.691C624.896 323.459 622.838 323.803 622.195 324.997C621.551 326.191 621.903 327.664 622.372 328.937ZM701.9 428.362C701.252 427.478 700.571 426.565 699.602 426.054C698.633 425.543 697.288 425.567 696.585 426.408C695.468 427.745 696.688 429.703 697.82 431.028C700.009 433.591 702 436.322 703.772 439.189C704.459 440.301 706.169 439.554 707.176 438.721C707.702 438.286 708.284 437.699 708.129 437.034C708.073 436.793 707.923 436.585 707.777 436.385C705.818 433.711 703.859 431.037 701.9 428.362ZM696.561 403.644C696.481 404.627 697.044 405.535 697.584 406.361C699.838 409.807 702.107 413.271 704.916 416.281C706.596 416.172 707.56 414.119 707.217 412.471C706.874 410.823 705.675 409.513 704.599 408.218C703.161 406.488 701.866 404.638 700.732 402.695C700.256 401.878 699.221 401.429 698.299 401.639C697.376 401.849 696.638 402.701 696.561 403.644ZM699.218 443.533C699.953 444.039 701.041 443.948 701.681 443.326C702.375 442.651 702.47 441.535 702.168 440.615C701.866 439.696 701.236 438.926 700.62 438.18C698.838 436.021 697.056 433.862 695.274 431.703C694.609 430.898 693.9 430.06 692.927 429.682C691.953 429.304 690.641 429.58 690.225 430.538C689.786 431.549 690.506 432.659 691.187 433.525C693.594 436.581 696.001 439.637 698.408 442.693C698.649 443 698.896 443.312 699.218 443.533ZM720.184 428.475C720.055 427.973 719.703 427.563 719.361 427.174C716.842 424.298 714.324 421.421 711.805 418.545C711.602 418.313 711.382 418.071 711.086 417.983C710.794 417.897 710.482 417.979 710.188 418.061C709.477 418.26 708.73 418.479 708.217 419.009C707.704 419.54 707.547 420.49 708.088 420.992C710.136 422.89 711.967 425.022 713.533 427.333C714.444 428.678 715.38 430.177 716.91 430.722C718.441 431.266 720.589 430.048 720.184 428.475ZM648.188 356.507C647.518 357.407 647.96 358.686 648.506 359.666C650.141 362.601 652.505 365.051 654.842 367.465C655.442 368.085 656.071 368.723 656.88 369.022C657.689 369.321 658.734 369.171 659.207 368.449C659.857 367.457 659.114 366.168 658.394 365.225C656.578 362.848 654.763 360.471 652.947 358.093C652.354 357.317 651.73 356.515 650.853 356.084C649.977 355.654 648.772 355.724 648.188 356.507ZM725.857 443.003C726.656 443.987 727.865 445.079 729.015 444.546C730.016 444.082 730.419 442.534 731.523 442.528C729.586 440.034 727.65 437.539 725.713 435.044C724.933 434.039 724.094 432.989 722.907 432.53C721.721 432.07 720.099 432.482 719.702 433.691C719.336 434.807 720.123 435.943 720.864 436.854C722.528 438.904 724.193 440.953 725.857 443.003ZM653.305 348.925C651.358 345.878 649.163 342.99 646.748 340.299C646.113 339.591 645.462 338.897 644.812 338.203C644.28 337.635 643.709 337.043 642.96 336.834C642.06 336.584 641.017 337.005 640.544 337.81C640.07 338.615 640.209 339.731 640.866 340.395C643.429 342.989 645.993 345.584 648.556 348.179C649.229 348.86 649.942 349.565 650.858 349.845C651.773 350.125 652.947 349.813 653.305 348.925ZM665.238 363.399C665.475 363.212 665.731 362.992 665.762 362.691C665.795 362.375 665.566 362.097 665.352 361.861C662.567 358.796 659.782 355.73 656.998 352.665C656.446 352.057 655.732 351.392 654.927 351.555C654.147 351.714 653.722 352.636 653.828 353.425C653.934 354.215 654.422 354.893 654.894 355.534C656.048 357.1 657.201 358.666 658.355 360.232C659.709 362.071 661.127 363.966 663.126 365.071C663.83 364.513 664.534 363.956 665.238 363.399ZM706.456 423.497C705.779 422.752 704.881 421.935 703.907 422.19C703.031 422.419 702.59 423.475 702.73 424.37C702.87 425.266 703.433 426.029 703.978 426.753C705.545 428.834 707.112 430.915 708.679 432.996C709.495 434.08 710.645 435.293 711.962 434.968C713.128 434.68 713.68 433.233 713.417 432.061C713.153 430.89 712.316 429.945 711.508 429.057C709.824 427.203 708.14 425.35 706.456 423.497ZM702.216 446.445C701.459 447.636 702.318 449.169 703.18 450.287C704.527 452.036 705.945 453.73 707.428 455.366C708.015 456.013 708.661 456.681 709.508 456.893C710.429 457.123 711.474 456.709 711.987 455.911C712.5 455.112 712.442 453.989 711.85 453.248C710.464 451.514 709.079 449.779 707.694 448.045C706.994 447.169 706.255 446.262 705.232 445.803C704.209 445.345 702.818 445.498 702.216 446.445ZM634.649 341.79C634.01 342.725 634.847 343.94 635.636 344.753C638.391 347.591 641.146 350.43 643.902 353.269C644.484 353.869 645.191 354.518 646.023 354.432C647.072 354.324 647.646 353.027 647.396 352.003C647.146 350.979 646.349 350.193 645.586 349.465C643.167 347.155 640.747 344.845 638.328 342.536C637.809 342.041 637.268 341.532 636.589 341.3C635.911 341.069 635.054 341.198 634.649 341.79ZM692.987 405.54C692.075 405.552 691.455 406.589 691.538 407.497C691.621 408.406 692.186 409.188 692.731 409.92C694.691 412.551 696.651 415.183 698.612 417.815C698.994 418.328 699.395 418.858 699.963 419.154C700.53 419.449 701.314 419.434 701.726 418.944C702.319 418.24 701.807 417.183 701.29 416.421C699.148 413.268 697.006 410.114 694.864 406.961C694.404 406.283 693.807 405.529 692.987 405.54ZM724.462 445.962C722.001 442.994 719.539 440.025 717.078 437.056C716.782 436.698 716.456 436.321 716.008 436.202C715.131 435.97 714.302 436.914 714.295 437.821C714.289 438.727 714.828 439.537 715.359 440.272C716.999 442.539 718.774 444.708 720.671 446.764C721.345 447.495 722.116 448.255 723.103 448.377C724.089 448.5 725.217 447.581 724.897 446.64C724.81 446.384 724.634 446.17 724.462 445.962ZM642.753 377.132C643.374 377.805 644.103 378.528 645.019 378.542C645.934 378.555 646.756 377.311 646.069 376.705C643.279 374.242 640.803 371.425 638.718 368.342C638.158 367.515 637.569 366.62 636.641 366.25C635.713 365.881 634.385 366.398 634.362 367.397C634.349 367.988 634.776 368.487 635.177 368.922C637.702 371.659 640.228 374.395 642.753 377.132ZM693.77 364.055C694.053 366.188 696.104 367.936 698.255 367.879C698.607 367.869 698.984 367.805 699.239 367.562C699.489 367.323 699.571 366.962 699.641 366.623C699.967 365.04 699.989 362.896 698.461 362.369C697.832 362.152 697.128 362.32 696.485 362.151C696.034 362.033 695.619 361.751 695.154 361.753C694.138 361.756 693.637 363.048 693.77 364.055ZM612.54 437.465C611.914 436.793 610.968 436.491 610.05 436.461C609.549 436.444 609.027 436.507 608.6 436.769C608.213 437.005 607.934 437.39 607.754 437.806C606.939 439.69 608.611 442.191 610.658 442.037C612.705 441.883 613.939 438.967 612.54 437.465ZM652.365 405.322C653.243 405.275 654.024 404.507 654.084 403.63C654.113 403.211 653.991 402.784 653.746 402.443C653.012 401.423 651.171 401.586 650.628 402.719C650.085 403.851 651.111 405.388 652.365 405.322ZM661.175 376.444C661.518 376.655 661.886 376.874 662.288 376.861C662.69 376.848 663.105 376.491 663.019 376.098C661.459 374.663 659.899 373.227 658.339 371.791C657.934 372.702 658.241 373.803 658.851 374.591C659.461 375.379 660.328 375.92 661.175 376.444ZM686.029 403.424C686.637 403.95 687.61 403.049 687.445 402.263C687.28 401.476 686.523 400.98 685.83 400.573C685.137 400.166 684.378 399.675 684.206 398.89C683.201 400.373 684.674 402.252 686.029 403.424Z" fill="#00160A"/>
<path id="highlight_6" fill-rule="evenodd" clip-rule="evenodd" d="M665.386 383.538C667.292 382.026 669.199 380.514 671.105 379.002C671.652 378.569 672.242 378.117 672.938 378.056C673.959 377.966 674.835 378.733 675.562 379.457C678.066 381.954 680.444 384.578 682.684 387.315C683.229 387.981 682.543 388.931 681.901 389.504C679.786 391.392 677.671 393.28 675.556 395.168C675.021 395.645 674.447 396.142 673.742 396.269C672.645 396.464 671.625 395.72 670.759 395.02C668.926 393.536 667.093 392.052 665.26 390.568C664.16 389.678 662.965 388.605 662.925 387.19C662.881 385.665 664.19 384.486 665.386 383.538ZM674.976 383.773C674.428 383.161 673.788 382.504 672.968 382.466C672.329 382.436 671.745 382.794 671.207 383.139C670.247 383.755 669.286 384.371 668.326 384.987C667.949 385.229 667.556 385.487 667.344 385.882C666.804 386.888 667.692 388.042 668.513 388.836C669.717 390.001 670.922 391.166 672.126 392.332C672.495 392.689 672.936 393.073 673.447 393.023C673.809 392.988 674.11 392.74 674.379 392.497C675.409 391.569 676.354 390.547 677.198 389.447C677.795 388.668 678.332 387.518 677.677 386.787C676.777 385.782 675.876 384.778 674.976 383.773Z" fill="#FFB61D"/>
</g>
</g>
</svg>
