<svg width="685" height="499" viewBox="0 0 685 499" fill="none" xmlns="http://www.w3.org/2000/svg">
<g id="planet_watch">
<rect width="685" height="499" fill="white"/>
<path id="display" d="M235.723 235.688C236.723 238.688 253.223 296.188 254.223 301.188C254.256 301.355 254.29 301.524 254.325 301.695C255.327 306.627 256.772 313.732 245.15 319.963C245.198 320.112 245.223 320.188 245.223 320.188C229.466 325.393 210.828 332.613 210.828 332.613C210.828 332.613 206.298 314.496 192.473 306.209C178.649 297.923 162.16 298.159 162.16 298.159C162.16 298.159 144.848 249.912 139.345 228.107C133.843 206.302 146.997 200.191 146.997 200.191C146.997 200.191 198.712 182.192 199.722 181.689C199.722 181.689 199.722 181.689 199.722 181.689C205.116 179.199 208.723 179.688 212.723 181.688C216.723 183.688 218.223 186.188 219.723 189.188C221.222 192.188 234.721 232.685 235.723 235.688Z" fill="#64FCD9"/>
<path id="display_ray" fill-rule="evenodd" clip-rule="evenodd" d="M370.74 316.22C379.822 314.267 379.376 306.521 408.627 306.521C413.846 306.521 424.231 310.357 430.561 311.765C442.663 314.457 465.082 324.635 465.082 324.635C465.082 324.635 475.073 330.677 491.049 330.982C507.026 331.286 515.716 326.939 532.59 326.939C544.896 326.939 555.577 330.982 566.119 330.982C576.661 330.982 591.228 329.638 591.725 321.525C598.423 212.226 562.438 166.924 537.741 128.44C498.58 67.417 509.382 -25.1234 459.89 19.9632C447.335 31.4001 445.832 40.8332 423.621 53.0597C405.94 62.7924 392.168 64.7251 382.793 70.6764C356.84 87.1511 343.21 110.105 325.154 121.087C293.623 140.265 283.281 132.492 258.355 145.615C255.065 147.347 251.416 149.79 247.356 151.431C239.282 154.693 230.08 157.333 222.35 162.782C216.101 167.187 206.494 179.876 206.494 179.876L147.274 200.502C147.274 200.502 134.121 206.613 139.623 228.418C145.125 250.223 162.438 298.47 162.438 298.47C162.438 298.47 178.926 298.234 192.751 306.521C206.575 314.808 211.106 332.925 211.106 332.925C211.106 332.925 244.267 322.912 258.355 318.005C262.224 316.658 270.975 313.256 284.352 312.619C299.016 311.921 310.072 319.185 331.39 320.244C343.369 320.839 361.657 318.172 370.74 316.22Z" fill="#64FCD9"/>
<g id="ray_outlines">
<path class="ray_outline" fill-rule="evenodd" clip-rule="evenodd" d="M346.498 318.731C355.581 317.798 364.663 316.865 373.745 315.933C372.123 318.413 368.86 319.112 365.93 319.558C348.702 322.181 330.811 323.343 314.081 318.462C296.549 313.347 277.51 313.528 260.078 318.975C260.217 316.796 262.657 315.628 264.749 315.003C278.84 310.787 294.09 310.519 308.322 314.236C314.619 315.88 320.744 318.291 327.192 319.173C333.586 320.048 340.079 319.39 346.498 318.731Z" fill="#00160A"/>
<path class="ray_outline" fill-rule="evenodd" clip-rule="evenodd" d="M275.236 137.328C284.139 135.073 293.579 135.002 302.185 131.794C302.642 132.145 303.099 132.497 303.556 132.848C299.528 136.755 293.284 136.797 287.692 137.268C277.062 138.162 266.644 141.502 257.475 146.955C253.076 149.571 248.839 152.718 243.857 153.893C231.985 156.693 221.058 163.363 213.141 172.643C212.607 171.713 211.711 170.996 210.685 170.679C216.98 165.12 223.913 160.287 231.306 156.304C235.778 153.895 240.41 151.799 245.038 149.706C248.929 147.946 252.82 146.186 256.711 144.426C262.744 141.697 268.816 138.954 275.236 137.328Z" fill="#00160A"/>
<path class="ray_outline" fill-rule="evenodd" clip-rule="evenodd" d="M449.021 33.1722C447.468 35.2933 446.014 37.4979 444.245 39.4427C441.905 42.0156 439.066 44.0764 436.228 46.0879C427.651 52.1685 418.797 58.0263 409.009 61.8642C404.449 63.6521 399.721 64.9872 395.173 66.804C380.92 72.4967 368.891 82.7483 358.751 94.2684C357.962 95.1645 357.12 96.1112 355.976 96.4536C354.833 96.796 353.33 96.2172 353.159 95.0358C365.083 83.713 377.339 72.1663 392.42 65.6111C399.139 62.6908 406.282 60.8285 412.97 57.8387C419.622 54.8647 425.733 50.8162 431.717 46.6578C435.698 43.8915 439.667 41.0425 442.982 37.5052C448.2 31.9367 451.777 24.6952 458.132 20.4701C458.903 19.9574 460.256 19.6929 460.485 20.5899C456.23 24.3596 452.38 28.5857 449.021 33.1722Z" fill="#00160A"/>
<path class="ray_outline" fill-rule="evenodd" clip-rule="evenodd" d="M507.617 332.321C494.875 334.046 481.729 332.713 469.593 328.466C467.505 327.736 465.041 326.281 465.343 324.091C477.219 329.281 490.455 331.319 503.342 329.944C511.927 329.027 520.341 326.631 528.968 326.303C538.736 325.933 548.38 328.223 558.065 329.55C567.75 330.877 578.006 331.164 586.879 327.062C587.708 326.678 588.601 326.247 589.495 326.435C590.389 326.622 591.084 327.794 590.474 328.474C590.289 328.681 590.026 328.798 589.77 328.907C582.646 331.942 574.874 333.446 567.132 333.287C554.703 333.032 542.571 328.569 530.146 328.982C522.552 329.234 515.146 331.302 507.617 332.321Z" fill="#00160A"/>
<path class="ray_outline" fill-rule="evenodd" clip-rule="evenodd" d="M426.014 312.442C426.663 311.466 428.067 311.45 429.232 311.571C434.704 312.139 440.104 313.395 445.265 315.3C449.403 316.827 453.401 318.779 457.017 321.306C453.293 321.572 449.795 319.733 446.345 318.305C441.619 316.349 436.635 315.1 431.673 313.858C429.787 313.386 427.901 312.914 426.014 312.442Z" fill="#00160A"/>
</g>
<g id="watch">
<path fill-rule="evenodd" clip-rule="evenodd" d="M164.91 197.568C165.743 197.086 166.564 198.543 166.01 199.33C165.456 200.116 164.375 200.261 163.426 200.416C157.398 201.394 152.202 205.432 148.587 210.354C146.693 212.932 145.109 216.028 145.532 219.199C145.761 220.921 146.427 223.05 145.053 224.113C143.452 222.407 142.526 220.084 142.516 217.744C142.497 213.617 145.148 209.994 147.879 206.899C151.016 203.343 154.809 199.836 159.523 199.329C161.416 199.126 163.264 198.521 164.91 197.568Z" fill="#00160A"/>
<path fill-rule="evenodd" clip-rule="evenodd" d="M233.344 317.837C238.254 315.859 243.355 313.748 246.839 309.762C247.26 309.28 247.697 308.745 248.317 308.584C248.937 308.423 249.743 308.903 249.617 309.531C249.005 312.59 245.93 314.408 243.158 315.84C241.472 316.711 239.787 317.582 238.101 318.453C237.267 318.884 236.393 319.325 235.455 319.332C234.516 319.339 233.502 318.763 233.344 317.837Z" fill="#00160A"/>
<path fill-rule="evenodd" clip-rule="evenodd" d="M156.493 266.123C155.257 263.112 154.113 260.063 153.065 256.982C152.807 256.224 152.555 255.465 152.303 254.705C150.202 248.372 148.1 242.038 146.238 235.63C146.021 234.883 146.246 233.662 146.987 233.902C147.291 234 147.441 234.333 147.557 234.631C149.991 240.913 152.426 247.194 154.86 253.476C156.499 257.703 158.165 262.1 157.868 266.624C157.845 266.964 157.369 267.107 157.071 266.942C156.773 266.776 156.622 266.438 156.493 266.123Z" fill="#00160A"/>
<path fill-rule="evenodd" clip-rule="evenodd" d="M249.773 294.302C250.028 295.385 249.769 297.065 248.674 296.868C245.372 284.951 242.237 272.988 239.269 260.983C239.169 260.58 239.07 260.146 239.215 259.756C239.36 259.367 239.857 259.082 240.205 259.31C240.38 259.423 240.47 259.628 240.549 259.821C243.135 266.129 244.708 272.798 246.271 279.434C247.438 284.39 248.606 289.346 249.773 294.302Z" fill="#00160A"/>
<path fill-rule="evenodd" clip-rule="evenodd" d="M144.215 172.662C143.736 173.028 143.258 173.393 142.779 173.759C132.243 166.013 119.5 161.305 106.459 160.34C106.277 159.748 106.225 159.118 106.305 158.505C118.094 158.595 129.835 162.165 139.678 168.654C141.373 169.771 143.044 171.003 144.215 172.662Z" fill="#00160A"/>
<path fill-rule="evenodd" clip-rule="evenodd" d="M178.896 397.581C193.838 389.621 206.83 378.031 216.438 364.092C218.361 361.303 220.148 358.424 221.935 355.547C222.667 354.369 223.398 353.191 224.13 352.012C225.35 355.742 222.865 359.575 220.51 362.715C209.948 376.796 198.479 391.574 181.975 397.695C180.954 398.074 179.657 398.361 178.896 397.581Z" fill="#00160A"/>
<path fill-rule="evenodd" clip-rule="evenodd" d="M53.9325 234.34C52.0156 233.906 50.35 232.485 49.6189 230.661C48.8879 228.837 49.1117 226.659 50.1987 225.021C51.5402 223.001 53.9495 221.963 56.3074 221.394C58.7062 220.814 61.1945 220.606 63.6563 220.78C64.5947 220.846 65.57 220.982 66.3459 221.514C66.9452 221.925 67.376 222.542 67.6968 223.194C68.7795 225.393 68.668 228.138 67.4107 230.243C66.1533 232.347 63.7893 233.746 61.3393 233.835C58.853 233.926 56.3592 234.889 53.9325 234.34ZM57.0874 228.938C58.9258 228.842 60.7581 228.63 62.5701 228.305C63.3064 228.173 64.0956 227.991 64.5847 227.425C65.0739 226.859 65.0136 225.791 64.3094 225.539C61.615 224.575 58.4776 224.947 56.0841 226.516C55.5307 226.878 54.9567 227.463 55.1277 228.102C55.3272 228.848 56.3168 228.978 57.0874 228.938Z" fill="#00160A"/>
<path fill-rule="evenodd" clip-rule="evenodd" d="M185.162 177.246C185.473 177.266 185.601 177.705 185.446 177.976C185.312 178.208 185.064 178.337 184.813 178.441L166.908 185.439C166.193 185.719 164.958 185.57 165.179 184.834C165.267 184.539 165.587 184.388 165.874 184.274C172.229 181.734 178.662 179.39 185.162 177.246Z" fill="#00160A"/>
<path fill-rule="evenodd" clip-rule="evenodd" d="M76.7976 331.453C75.8078 330.319 74.8766 329.006 74.7889 327.503C74.7323 326.534 75.0377 325.575 75.456 324.698C77.12 321.211 80.616 318.778 84.3905 317.95C88.1649 317.121 92.1674 317.783 95.711 319.324C96.9984 319.884 98.2809 320.596 99.1005 321.736C100.382 323.518 100.246 326.03 99.2864 328.004C98.327 329.979 96.6735 331.519 94.9953 332.934C93.4493 334.238 91.776 335.514 89.8004 335.946C88.7374 336.179 87.6373 336.155 86.5494 336.13C85.4591 336.104 84.3602 336.078 83.2962 335.838C80.7033 335.254 78.5455 333.456 76.7976 331.453ZM83.9817 324.779C83.0815 323.915 81.6541 323.024 80.7267 323.858C79.9324 324.573 79.3174 325.485 78.953 326.49C80.7619 326.552 82.5864 325.932 83.9817 324.779ZM86.6058 320.56C85.5072 320.824 84.3649 321.109 83.5018 321.839C84.1101 322.457 84.8125 323.041 85.6607 323.223C86.509 323.405 87.5237 323.06 87.8548 322.258C88.186 321.457 87.4493 320.357 86.6058 320.56ZM89.6106 328.063C89.5274 328.723 89.4467 329.411 89.6636 330.04C89.8805 330.669 90.4911 331.216 91.1507 331.128C92.0963 331.001 92.5107 329.764 93.416 329.463C92.2557 328.753 90.9545 328.274 89.6106 328.063ZM93.8835 322.673C94.6171 322.897 95.4763 322.264 95.4796 321.497C93.6591 320.856 91.4231 321.854 90.6849 323.638C91.8019 323.867 93.0249 323.485 93.813 322.661M87.5222 330.472C87.4329 330.25 87.3012 330.019 87.0761 329.937C86.3461 329.671 86.1588 331.029 85.4757 331.399C84.8315 331.748 84.9237 332.843 85.5638 333.199C86.2039 333.555 87.0763 333.216 87.4567 332.59C87.8371 331.964 87.7952 331.152 87.5222 330.472ZM82.1506 328.79C81.4921 329.353 80.291 329.096 79.8343 329.833C79.4352 330.476 80.0866 331.377 80.8415 331.437C81.5963 331.498 82.284 330.977 82.7346 330.368C82.9818 330.034 83.1905 329.622 83.0967 329.217C83.0028 328.813 82.4663 328.52 82.1506 328.79ZM95.7967 326.391C96.0398 326.146 96.2829 325.902 96.5261 325.657C95.8954 325.046 94.8776 325.189 94.0191 325.373C93.7538 325.43 93.4703 325.497 93.2878 325.697C92.864 326.164 93.3718 326.977 93.996 327.065C94.6202 327.153 95.2096 326.791 95.736 326.444L95.7967 326.391Z" fill="#00160A"/>
<path fill-rule="evenodd" clip-rule="evenodd" d="M221.159 188.154C221.747 189.448 222.337 190.746 223.429 191.623C224.889 192.795 227.68 192.442 227.936 190.587C204.569 167.76 173.88 152.547 141.566 147.771C109.251 142.995 75.4734 148.68 46.5023 163.771C40.8591 166.71 35.3325 170.043 30.8441 174.553C26.7498 178.667 23.5986 183.715 21.6999 189.2C21.0993 190.935 20.6149 192.727 20.1308 194.518C19.0159 198.644 17.9031 202.761 15.3774 206.153C8.58188 215.279 6.27836 227.594 9.31572 238.56C10.0646 241.263 11.1122 243.868 12.1601 246.474C13.1021 248.816 14.0444 251.159 14.7699 253.574C16.14 258.136 16.7161 262.88 17.2914 267.616C17.4234 268.703 17.5553 269.789 17.6968 270.873C24.8922 325.987 59.0423 376.936 107.288 404.535C113.476 408.074 119.978 411.284 126.984 412.599C133.148 413.756 139.488 413.406 145.735 412.864C157.704 411.827 169.727 410.072 180.965 405.825C211.615 394.241 232.481 365.919 249.058 337.656C254.582 328.237 259.971 318.195 260.354 307.282C260.597 300.359 258.795 293.547 257.008 286.854L249.49 258.701L246.5 258.968L255.533 294.703C257.172 301.185 258.692 308.524 255.123 314.179C253.17 317.274 249.968 319.337 246.796 321.162C235.247 327.807 222.673 332.666 209.657 335.514C205.727 315.158 185.014 299.509 164.359 301.29C161.639 301.525 159.995 298.424 159.102 295.844L138.054 235.062C135.141 226.65 132.255 217.239 135.897 209.117C139.727 200.577 149.365 196.543 158.14 193.286L186.386 182.802C192.293 180.609 198.362 178.387 204.663 178.429C210.964 178.47 217.645 181.267 220.544 186.861C220.762 187.281 220.96 187.718 221.159 188.154ZM100.168 176.726C106.48 181.998 111.989 188.599 114.371 196.471C114.896 198.206 116.446 200.484 117.906 199.41C125.667 193.704 134.771 190.167 143.755 186.695L155.283 182.239C167.949 177.343 180.792 172.403 194.291 170.921C186.188 164.088 176.403 159.512 166.363 156.113C140.509 147.361 112.17 146.091 85.6373 152.496C83.1058 153.108 80.5868 153.788 78.142 154.685C76.3086 155.358 74.5139 156.154 72.7208 156.949C69.3029 158.464 65.8906 159.976 62.2262 160.633C76.0857 162.116 89.4687 167.793 100.168 176.726ZM71.867 164.557C81.3811 167.025 89.9614 172.249 97.8039 178.174C99.1247 179.172 100.565 180.484 100.42 182.133C97.5969 181.265 94.4335 182.482 92.3565 184.581C90.2794 186.681 89.1298 189.526 88.367 192.38C87.5267 195.523 87.0932 198.775 87.081 202.029C87.0709 204.686 87.3394 207.344 87.6075 209.999C88.0157 214.04 88.423 218.073 87.845 222.076C86.5341 231.154 80.0873 239.009 72.0121 243.358C63.9368 247.707 54.4261 248.843 45.2917 248.016C39.4702 247.488 34.3646 243.585 31.0715 238.755C27.7784 233.926 26.0398 228.225 24.537 222.576C22.9775 216.714 21.6127 210.726 21.7038 204.661C21.8763 193.184 27.3865 182.174 35.4263 173.981C37.7956 171.566 40.3965 169.357 43.3067 167.632C51.7627 162.622 62.3529 162.09 71.867 164.557ZM25.237 234.087C21.3734 225.167 19.3692 215.539 18.2359 205.884C12.0336 214.774 9.5919 226.202 11.6192 236.85C13.6465 247.499 20.1164 257.23 29.1514 263.219C31.7748 264.958 32.408 268.384 32.9904 271.535L32.9906 271.536C33.0385 271.796 33.0861 272.053 33.1344 272.308C34.677 280.431 38.4566 287.93 42.1934 295.306C49.4139 309.559 56.7233 323.948 66.9542 336.22C73.262 343.786 81.9369 350.945 91.7437 350.016C102.336 349.012 109.98 338.47 111.36 327.921C112.739 317.371 109.361 306.844 106.028 296.74L95.0841 263.569C94.649 262.25 94.2758 260.621 95.2369 259.619C101.173 253.428 102.775 244.051 101.431 235.58C100.087 227.109 96.1778 219.291 92.2792 211.652C90.9071 212.111 90.9648 214.036 91.1749 215.467C92.7474 226.178 87.1388 237.208 78.4218 243.626C69.7048 250.045 58.3574 252.214 47.5789 251.208C43.4938 250.827 39.3563 249.983 35.8428 247.864C30.7976 244.822 27.5785 239.494 25.237 234.087ZM139.719 368.262C135.144 365.042 131.537 360.644 128.217 356.141C122.879 348.902 118.119 341.238 113.996 333.244C111.912 339.147 108.181 344.459 103.335 348.422C97.7831 352.962 89.6159 353.218 82.9263 350.633C76.2366 348.048 70.7801 343.041 65.9351 337.753C48.5925 318.826 37.0767 295.068 30.2011 270.334C29.4989 267.808 28.7196 265.079 26.6347 263.489C24.5498 261.899 20.758 262.454 20.2246 265.021C20.1104 265.57 20.1572 266.139 20.2045 266.698C21.0212 276.359 21.8513 286.094 24.5421 295.409C25.8371 299.892 27.5533 304.241 29.3053 308.565C35.7328 324.431 42.7723 340.243 53.0498 353.932C66.6473 372.044 85.2717 385.623 103.605 398.92C110.451 403.885 118.637 409.115 126.763 406.773C130.068 405.82 132.899 403.688 135.483 401.419C144.365 393.617 151.306 383.623 155.514 372.575C149.986 373.44 144.295 371.483 139.719 368.262ZM222.139 334.444L192.42 343.646C185.611 345.754 178.698 347.88 171.572 348.08C164.447 348.281 156.957 346.314 151.932 341.258C154.655 347.861 159.355 353.633 165.267 357.639C166.769 358.657 166.181 360.967 165.431 362.62C161.178 371.993 156.89 381.429 150.979 389.855C145.067 398.282 137.369 405.733 127.895 409.758C130.136 410.696 132.524 411.284 134.945 411.493C138.388 411.79 141.846 411.325 145.271 410.861C160.29 408.825 175.652 406.685 189.101 399.696C200.968 393.529 210.643 383.944 220.115 374.503C227.894 366.749 236.003 358.419 238.572 347.74C239.754 342.831 242.978 338.738 246.182 334.67C249.804 330.073 253.4 325.507 253.994 319.832C244.924 327.32 233.374 330.965 222.139 334.444ZM103.408 251.036C106.4 243.417 105.656 234.737 103.022 226.987C100.388 219.237 95.9907 212.228 91.6321 205.3C89.1207 201.308 90.0775 196.062 91.8356 191.685C93.2274 188.221 95.701 184.509 99.4293 184.307C102.992 184.114 105.799 187.236 107.698 190.256C111.116 195.688 113.54 202.526 111.091 208.458C108.32 215.169 109.113 222.749 109.953 229.96L110.565 235.221C111.174 240.456 111.803 245.769 113.808 250.643C120.59 267.125 126.383 284.014 131.147 301.189L131.309 301.776C132.511 306.121 133.731 310.527 136.12 314.343C136.525 314.991 136.962 315.618 137.399 316.244C138.033 317.153 138.666 318.062 139.202 319.031C140.432 321.256 141.106 323.725 141.778 326.186C141.936 326.764 142.094 327.342 142.259 327.917C145.485 339.144 151.69 349.501 160.069 357.641C161.22 358.759 160.853 360.656 160.402 362.196C159.503 365.266 158.289 368.707 155.349 369.968C153.723 370.666 151.855 370.533 150.133 370.123C143.414 368.527 138.293 363.187 133.931 357.833C128.567 351.251 123.711 344.256 119.419 336.93C117.178 333.105 115.036 328.991 114.98 324.558C114.814 311.214 110.102 298.615 105.387 286.006C103.47 280.88 101.552 275.753 99.9393 270.573C99.2885 268.484 98.6807 266.341 98.7125 264.152C98.7601 260.873 100.207 257.887 101.658 254.895C102.277 253.618 102.896 252.339 103.408 251.036ZM130.42 255.404C128.519 255.967 126.531 256.556 124.883 255.822C126.574 247.821 123.955 239.04 118.157 233.273C120.392 230.461 125.033 230.667 127.849 232.897C130.665 235.127 131.988 238.744 132.718 242.262C133.349 245.305 133.635 248.42 133.571 251.527C133.549 252.579 135.22 252.886 135.945 252.123C136.67 251.36 136.66 250.177 136.57 249.128C136.149 244.218 134.96 239.374 133.059 234.827C131.718 231.62 129.066 228.061 125.651 228.71L115.21 230.696C114.79 230.776 114.33 230.85 113.957 230.642C113.51 230.392 113.354 229.834 113.244 229.333C111.148 219.818 110.932 208.547 117.966 201.804C120.29 199.577 123.2 198.076 126.096 196.671C142.292 188.81 159.373 182.955 176.405 177.121C185.308 174.071 195.162 171.031 203.882 174.57L155.293 191.965C148.055 194.556 140.389 197.456 135.81 203.631C132.149 208.569 131.006 215.017 131.443 221.148C131.879 227.279 133.763 233.203 135.663 239.049C143.513 263.194 151.883 287.17 160.766 310.954C162.804 316.41 164.903 321.922 168.255 326.685C173.111 333.586 180.559 338.617 188.775 340.546C178.627 347.729 163.308 346.279 154.689 337.32C151.442 333.945 149.163 329.776 146.936 325.656C145.988 323.902 145.231 321.313 146.922 320.258C151.56 317.367 151.316 310.592 150.055 305.274C149.253 301.89 148.266 298.549 147.102 295.271C145.75 291.462 144.064 287.605 141.042 284.921C138.02 282.237 133.336 281.044 129.852 283.094C126.536 276.586 123.95 269.706 122.157 262.624C121.922 261.697 121.921 260.375 122.853 260.159C127.402 259.103 131.859 257.652 136.158 255.828C134.864 254.087 132.705 254.727 130.42 255.404ZM146.211 304.601L144.248 298.23C142.863 293.733 141.328 288.998 137.802 285.881C136.394 284.637 134.263 283.707 132.694 284.74C131.1 285.788 131.138 288.105 131.425 289.991C132.557 297.451 134.751 304.749 137.921 311.596C138.987 313.898 140.202 316.202 142.085 317.901C142.552 318.323 143.084 318.715 143.705 318.818C145.029 319.036 146.189 317.877 146.784 316.674C148.616 312.969 147.428 308.551 146.211 304.601ZM187.226 317.586C190.72 322.675 196.45 326.167 202.575 326.938C204.484 327.179 205.133 329.579 205.336 331.493C201.315 331.479 197.429 329.864 194.106 327.6C190.783 325.336 187.95 322.437 185.151 319.55C184.258 318.629 183.361 317.699 182.669 316.62C180.659 313.486 180.617 309.527 180.64 305.805C181.783 305.057 183.387 305.972 183.965 307.209C184.386 308.109 184.456 309.109 184.526 310.11C184.553 310.485 184.579 310.86 184.624 311.23C184.902 313.525 185.918 315.68 187.226 317.586ZM177.96 304.747C176.644 305.9 176.405 307.848 176.477 309.596C176.722 315.511 179.571 321.181 183.829 325.294C188.087 329.407 193.672 332.015 199.479 333.168C200.903 333.45 202.439 333.637 203.758 333.032C199.833 332.502 196.036 331.036 192.774 328.788C191.536 327.935 190.377 326.974 189.224 326.009C186.178 323.458 183.117 320.816 180.99 317.461C178.615 313.713 177.53 309.163 177.96 304.747ZM201.544 325.093C196.852 324.12 192.527 321.464 189.537 317.72C187.367 315.005 185.867 311.417 186.78 308.064C188.348 308.368 189.572 309.92 189.504 311.515C189.347 315.167 191.777 318.784 195.218 320.02C195.906 320.268 196.621 320.426 197.336 320.585C198.097 320.753 198.858 320.922 199.585 321.197C200.997 321.731 202.355 322.837 202.523 324.337C202.548 324.563 202.535 324.819 202.376 324.981C202.171 325.19 201.83 325.152 201.544 325.093ZM177.418 326.15C176.491 325.734 175.486 325.561 174.479 325.387C173.646 325.243 172.81 325.1 172.017 324.817C171.349 324.579 170.709 325.483 170.963 326.145C171.218 326.808 171.99 327.127 172.699 327.157C173.083 327.172 173.464 327.126 173.846 327.079C174.17 327.039 174.494 326.999 174.82 326.997C177.359 326.985 179.505 329.755 178.859 332.21C178.611 333.153 179.661 334.162 180.593 333.876C181.701 331.012 180.22 327.407 177.418 326.15ZM191.626 311.508C193.377 312.658 194.881 314.139 196.372 315.61L198.527 317.735C198.906 318.109 199.297 318.724 198.93 319.108C194.93 319.406 191.17 315.493 191.626 311.508ZM180.076 323.504C177.856 320.83 175.678 318.016 174.577 314.719C173.477 311.423 173.623 307.519 175.77 304.786C174.656 303.582 172.683 303.284 171.264 304.107C169.844 304.931 169.122 306.79 169.614 308.356C170.527 311.259 168.592 314.729 165.643 315.48C167.418 311.978 167.998 307.883 167.265 304.026C167.213 303.75 167.138 303.45 166.91 303.286C166.426 302.937 165.798 303.475 165.492 303.986C163.666 307.035 163.759 310.933 164.903 314.297C166.047 317.661 168.131 320.612 170.186 323.511C175.351 321.828 181.58 325.298 182.868 330.575C183.984 335.147 188.55 338.294 193.217 338.898C197.885 339.502 202.585 337.996 206.811 335.923C199.255 334.905 191.288 333.718 185.338 328.951C183.364 327.37 181.692 325.449 180.076 323.504ZM177 329.891C177.138 330.581 175.945 330.899 175.558 330.312L175.474 330.327C174.519 330.086 173.741 329.252 173.566 328.283C174.866 328.316 176.142 328.914 177 329.891ZM163.155 304.499C163.115 304.008 162.542 303.641 162.079 303.809C161.852 304.52 162.033 305.346 162.537 305.896C163.185 305.903 163.616 304.993 163.201 304.496L163.155 304.499ZM148.168 335.012C148.168 335.004 148.168 334.997 148.168 334.989L148.168 334.97L148.143 335.028C148.151 335.028 148.16 335.028 148.169 335.028C148.189 335.739 148.592 336.43 149.204 336.794C149.579 336.072 148.978 335.057 148.169 335.028C148.169 335.023 148.168 335.017 148.168 335.012ZM115.922 235.915C119.549 240.406 121.659 246.1 121.834 251.87C121.866 252.925 121.452 254.356 120.4 254.256C120.002 254.218 119.671 253.943 119.386 253.664C116.686 251.018 115.761 247.1 114.957 243.406C114.394 240.825 113.984 237.712 115.922 235.915Z" fill="#00160A"/>
</g>
<g id="stars">
<path class="star" fill-rule="evenodd" clip-rule="evenodd" d="M149.432 78.5288C151.073 81.7366 154.028 84.2466 157.46 85.3457C157.445 85.7458 157.43 86.146 157.415 86.5461C154.462 88.3322 152.873 92.115 153.664 95.4742C153.907 96.5082 152.429 97.2378 151.469 96.7827C150.509 96.3277 150.026 95.2668 149.574 94.3056C149.006 93.0991 148.352 91.9 147.367 91.0009C146.382 90.1018 145.008 89.5391 143.703 89.8139C142.747 90.0152 141.872 88.9976 141.888 88.0208C141.905 87.0441 142.538 86.1874 143.236 85.504C143.934 84.8205 144.736 84.2191 145.255 83.3915C145.862 82.4232 146.019 81.2443 146.083 80.1033C146.123 79.392 146.139 78.6523 146.46 78.0163C146.781 77.3803 147.516 76.8862 148.196 77.0984C148.815 77.2916 149.137 77.9513 149.432 78.5288L149.432 78.5288Z" fill="#00160A"/>
<path class="star" fill-rule="evenodd" clip-rule="evenodd" d="M548.936 111.585C549.074 112.762 549.363 114.408 548.225 114.734C547.163 115.038 546.487 113.673 546.042 112.662C544.844 109.942 541.998 108.031 539.028 107.952C537.852 107.921 537.654 106.063 538.48 105.226C539.306 104.388 540.564 104.188 541.61 103.65C543.24 102.811 544.316 101.141 544.846 99.3861C545.376 97.631 545.427 95.7725 545.474 93.9398C545.486 93.476 546.015 93.1579 546.475 93.2182C546.935 93.2786 547.315 93.6063 547.617 93.9582C549.689 96.3704 549.421 100.304 551.793 102.422C552.895 103.405 554.457 103.869 555.31 105.076C554.644 105.872 553.465 105.914 552.471 106.212C550.24 106.88 548.667 109.273 548.936 111.585H548.936Z" fill="#00160A"/>
<path class="star" fill-rule="evenodd" clip-rule="evenodd" d="M209.414 103.538C211.067 104.76 211.931 106.757 213.272 108.315C214.693 109.965 216.684 111.114 218.824 111.518C215.795 113.187 213.809 116.594 213.85 120.052C213.859 120.868 213.737 121.987 212.924 122.058C212.714 122.077 212.507 122.007 212.313 121.925C209.127 120.584 207.821 115.972 204.387 115.571C203.176 115.43 202.962 113.623 203.664 112.626C204.366 111.629 205.548 111.071 206.318 110.126C207.873 108.219 207.505 105.09 209.414 103.538Z" fill="#00160A"/>
<path class="star" fill-rule="evenodd" clip-rule="evenodd" d="M287.641 61.2225C286.884 61.6744 285.878 61.197 285.326 60.5094C284.774 59.8217 284.49 58.9534 283.962 58.2474C282.601 56.4286 279.875 55.9772 278.675 54.049C278.293 53.4364 278.138 52.5554 278.65 52.0469C278.854 51.8444 279.13 51.7367 279.387 51.6075C281.218 50.686 282.139 48.5963 282.592 46.5969C283.045 44.5975 283.189 42.4905 284.104 40.6559C284.332 40.1993 284.637 39.7378 285.112 39.5511C285.587 39.3644 286.248 39.6035 286.321 40.1086C286.586 41.9473 286.852 43.7861 287.117 45.6249C287.271 46.6889 287.438 47.7907 288.024 48.6919C288.61 49.5931 289.741 50.2354 290.766 49.912C291.479 49.6871 292.05 50.6933 291.793 51.3957C291.537 52.098 290.855 52.5319 290.295 53.0278C288.901 54.2635 288.128 56.1685 288.267 58.0265C288.353 59.1751 288.63 60.6323 287.641 61.2225Z" fill="#00160A"/>
<path class="star" fill-rule="evenodd" clip-rule="evenodd" d="M465.699 358.17C467.839 356.409 469.284 353.824 469.663 351.079C469.806 350.044 471.474 349.999 472.105 350.831C472.736 351.663 472.651 352.812 472.619 353.856C472.576 355.216 472.692 356.639 473.385 357.81C474.078 358.981 475.483 359.82 476.803 359.486C477.321 359.354 477.807 359.932 477.769 360.466C477.73 360.999 477.342 361.441 476.929 361.781C475.315 363.103 472.898 363.691 472.136 365.633C471.868 366.319 471.86 367.074 471.722 367.797C471.583 368.52 471.257 369.278 470.597 369.605C469.938 369.931 468.94 369.529 468.938 368.793C468.93 366.229 467.65 363.7 465.589 362.174C464.992 361.732 464.277 361.286 464.145 360.555C463.966 359.571 464.927 358.805 465.699 358.17L465.699 358.17Z" fill="#00160A"/>
<path class="star" fill-rule="evenodd" clip-rule="evenodd" d="M330.669 299.369C329.565 296.661 326.755 294.739 323.831 294.693C323.031 291.846 326.472 289.495 326.778 286.555C326.842 285.945 326.767 285.317 326.924 284.724C327.081 284.131 327.578 283.554 328.19 283.595C329.043 285.673 330.578 287.464 332.5 288.625C333 288.927 333.543 289.203 333.878 289.681C334.213 290.158 334.239 290.918 333.759 291.25C331.29 292.958 330.867 296.373 330.669 299.369Z" fill="#00160A"/>
<path class="star" fill-rule="evenodd" clip-rule="evenodd" d="M518.879 253.072C518.515 252.862 518.116 252.66 517.697 252.691C517.32 252.72 516.973 252.936 516.596 252.944C516.218 252.951 515.797 252.55 516.008 252.237C519.634 250.31 521.106 245.966 522.261 242.026C522.45 241.675 523.029 241.773 523.256 242.101C523.482 242.429 523.468 242.86 523.47 243.259C523.48 244.988 523.987 246.749 525.087 248.084C526.187 249.419 527.917 250.275 529.64 250.123C527.026 251.924 524.175 254.1 523.783 257.251C522.422 255.573 520.751 254.149 518.879 253.072H518.879Z" fill="#00160A"/>
<path class="star" fill-rule="evenodd" clip-rule="evenodd" d="M168.312 220.078C170.93 222.043 174.133 223.218 177.401 223.414C178.146 223.458 178.094 224.581 177.8 225.267C176.959 227.227 176.119 229.187 175.279 231.147C175.749 231.831 176.242 232.623 176.059 233.433C175.876 234.242 174.583 234.678 174.227 233.929C172.848 231.029 169.37 229.298 166.226 229.946C166.384 228.836 166.994 227.854 167.451 226.831C168.389 224.729 168.693 222.348 168.312 220.078Z" fill="#00160A"/>
<path class="star" fill-rule="evenodd" clip-rule="evenodd" d="M223.552 279.118C223.956 278.922 224.425 278.862 224.865 278.95C225.21 281.936 227.461 284.613 230.343 285.466C229.052 288.066 228.331 290.947 228.246 293.848C227.958 294.081 227.541 293.828 227.264 293.582C225.052 291.626 222.84 289.67 220.628 287.714C222.765 285.441 223.86 282.223 223.552 279.118Z" fill="#00160A"/>
</g>
<g id="planet_s">
<path id="planet_bg" d="M271 227C271 245.225 258.725 261.5 240.5 261.5C222.275 261.5 205 245.225 205 227C205 208.775 219.775 194 238 194C256.225 194 271 208.775 271 227Z" fill="#00160A"/>
<path id="white_mass" fill-rule="evenodd" clip-rule="evenodd" d="M252.778 248.014C253.097 243.339 256.533 239.033 261.021 237.683C263.717 236.872 265.595 234.283 266.264 231.548C266.933 228.813 266.582 225.937 266.065 223.169C264.412 214.332 260.591 205.211 252.901 200.554C244.563 195.505 233.815 196.952 224.625 200.205C220.62 201.622 216.457 203.579 214.353 207.27C213.059 209.541 212.704 212.209 212.373 214.801C211.697 220.102 211.019 225.454 211.508 230.776C211.996 236.097 213.755 241.461 217.386 245.382C219.915 248.112 223.79 250.104 227.328 248.95C230.101 248.046 232.645 250.623 235.271 251.893C238.855 253.627 243.086 252.909 246.995 252.154C249.51 251.669 252.603 250.569 252.778 248.014Z" fill="white"/>
<g id="highlights">
<path class="highlight" fill-rule="evenodd" clip-rule="evenodd" d="M249.875 213.131C250.938 212.71 252.135 213.187 253.132 213.75C255.288 214.967 257.261 216.712 258.151 219.023C259.041 221.334 258.6 224.26 256.662 225.802C255.654 226.604 254.124 226.413 253.049 225.704C251.973 224.995 251.247 223.878 250.552 222.793C249.124 220.563 247.633 218.022 248.184 215.431C248.391 214.462 248.953 213.497 249.875 213.131H249.875Z" fill="#FFB61D"/>
<path class="highlight" fill-rule="evenodd" clip-rule="evenodd" d="M223.96 213.556C224.153 217.354 222.57 221.206 219.76 223.77C219.027 224.44 218.095 225.057 217.114 224.901C216.121 224.744 215.394 223.797 215.213 222.808C215.032 221.82 215.294 220.804 215.639 219.86C216.711 216.93 218.627 214.314 221.098 212.409C221.724 211.926 222.585 211.477 223.26 211.888C223.797 212.215 223.928 212.928 223.96 213.556Z" fill="#FFB61D"/>
<path class="highlight" fill-rule="evenodd" clip-rule="evenodd" d="M245.651 239.986C244.579 240.273 243.263 240.16 242.603 239.268C242.089 238.572 242.126 237.606 242.377 236.778C242.745 235.561 243.575 234.441 244.746 233.944C245.916 233.446 247.423 233.69 248.223 234.679C248.958 235.586 248.97 236.953 248.404 237.974C247.838 238.996 246.779 239.684 245.651 239.986L245.651 239.986Z" fill="#FFB61D"/>
<path class="highlight" fill-rule="evenodd" clip-rule="evenodd" d="M241.404 231.772C241.166 232.371 240.694 232.928 240.06 233.047C239.009 233.246 238.139 232.206 237.748 231.21C237.374 230.256 237.193 229.227 237.22 228.202C237.228 227.899 237.31 227.525 237.604 227.45C238.751 227.159 240.045 227.56 240.826 228.448C241.608 229.337 241.84 230.672 241.404 231.772H241.404Z" fill="#FFB61D"/>
<path class="highlight" fill-rule="evenodd" clip-rule="evenodd" d="M226.867 236.744C227.564 237.549 228.176 238.494 228.266 239.554C228.356 240.614 227.778 241.788 226.755 242.082C225.757 242.368 224.731 241.776 223.91 241.141C222.975 240.418 222.079 239.558 221.693 238.442C221.306 237.327 221.581 235.908 222.587 235.29C223.987 234.429 225.791 235.502 226.867 236.744H226.867Z" fill="#FFB61D"/>
</g>
<path id="planet_accent" fill-rule="evenodd" clip-rule="evenodd" d="M243.083 201.334C240.923 201.442 238.802 202.11 236.938 203.206C235.447 204.082 233.563 203.64 231.898 203.173C230.29 202.722 228.681 202.271 227.072 201.82C226.971 201.332 227.554 201.009 228.029 200.861C232.737 199.396 237.671 198.371 242.582 198.813C247.493 199.256 252.408 201.312 255.522 205.135C251.608 203.151 247.465 201.116 243.083 201.334Z" fill="#00160A"/>
</g>
<g id="planet_m">
<path fill-rule="evenodd" clip-rule="evenodd" d="M419.522 379.821C418.834 380.132 417.775 380.226 417.557 379.503C420.009 378.035 422.461 376.568 424.913 375.101C423.632 377.158 421.73 378.823 419.522 379.821Z" fill="#E7EAEE"/>
<path fill-rule="evenodd" clip-rule="evenodd" d="M378.434 373.51C379.484 374.649 380.534 375.789 381.584 376.928C381.752 377.11 381.634 377.462 381.39 377.507C379.333 376.56 377.56 375.003 376.357 373.085C376.727 372.332 377.866 372.894 378.434 373.51Z" fill="#E7EAEE"/>
<path fill-rule="evenodd" clip-rule="evenodd" d="M346.135 373.495C342.101 372.305 337.689 369.4 337.934 365.201C338.103 362.291 340.495 360.047 342.833 358.307C346.046 355.916 349.493 353.841 353.11 352.122C355.567 350.955 358.44 349.545 358.915 346.867C361.691 331.21 373.599 317.551 388.691 312.544C403.783 307.537 421.427 311.329 433.215 322C435.553 324.116 438.434 326.677 441.416 325.652C447.409 323.592 454.108 322.193 459.979 324.58C462.147 325.461 464.335 327.26 464.227 329.598C464.175 330.705 463.606 331.716 463.01 332.651C459.307 338.46 453.957 343.206 447.748 346.19C444.676 347.666 442.66 350.741 441.437 353.923C440.213 357.105 439.633 360.498 438.533 363.725C434.164 376.544 421.435 385.593 407.987 387.199C394.54 388.805 380.796 383.608 370.498 374.812C369.323 373.808 367.862 372.682 366.394 373.167C359.882 375.319 352.714 375.435 346.135 373.495ZM366.638 361.648C367.31 361.973 368.085 361.983 368.831 361.974C384.981 361.785 400.453 355.9 415.525 350.095C422.062 347.577 428.6 345.059 435.137 342.541C436.471 342.027 437.949 341.374 438.454 340.036C438.785 339.157 438.608 338.174 438.38 337.263C436.381 329.298 430.652 322.516 423.507 318.467C416.362 314.419 407.917 312.974 399.725 313.551C388.536 314.339 377.381 319.065 370.155 327.643C362.929 336.222 360.226 348.822 364.662 359.124C365.094 360.127 365.654 361.172 366.638 361.648ZM436.353 352.548C417.515 361.48 397.402 367.719 376.816 371.017C375.382 371.247 374.764 373.158 375.327 374.497C375.89 375.837 377.197 376.691 378.453 377.421C386.043 381.833 394.631 384.763 403.409 384.889C412.187 385.016 421.15 382.174 427.632 376.253C434.114 370.332 437.809 361.206 436.353 352.548ZM341.305 366.842C341.804 368.361 343.358 369.257 344.851 369.83C350.703 372.077 357.221 371.5 363.432 370.656C388.501 367.253 413.049 360.034 435.969 349.324C445.152 345.033 454.473 339.826 459.91 331.271C460.381 330.529 460.836 329.699 460.747 328.825C460.559 326.985 458.269 326.259 456.421 326.173C451.842 325.958 447.306 326.978 442.836 327.992C441.277 328.345 439.332 329.193 439.477 330.785C439.636 332.532 442.086 332.859 443.781 332.408C445.476 331.957 447.574 331.337 448.752 332.637C450.363 334.415 448.144 337.052 446.108 338.321C430.72 347.91 413.312 353.673 396.093 359.35C392.03 360.689 387.957 362.031 383.766 362.891C380.169 363.63 376.51 364.008 372.857 364.385C369.44 364.738 366.023 365.091 362.606 365.444C360.874 365.623 359.073 365.793 357.437 365.2C355.8 364.606 354.389 363.005 354.616 361.279C354.867 359.368 356.818 358.262 358.276 357.003C359.734 355.743 360.726 353.195 359.156 352.079C353.812 354.253 348.796 357.229 344.328 360.878C342.487 362.381 340.564 364.584 341.305 366.842ZM441.9 338.276C443.321 337.379 444.741 336.481 446.162 335.584C446.596 335.309 447.095 334.862 446.912 334.382C446.752 333.961 446.198 333.889 445.748 333.885C444.45 333.874 443.009 333.917 442.072 334.814C441.152 335.695 441.072 337.309 441.9 338.276ZM357.682 360.991C357.577 361.105 357.469 361.224 357.424 361.372C357.226 362.006 358.209 362.343 358.84 362.133C359.47 361.923 360.182 361.516 360.736 361.882C361.535 362.41 362.655 361.316 362.363 360.405C362.07 359.493 360.911 359.102 359.985 359.345C359.059 359.587 358.331 360.287 357.682 360.991Z" fill="#00160A"/>
</g>
<g id="planet_xl">
<path fill-rule="evenodd" clip-rule="evenodd" d="M463.248 114.159C470.761 128.661 468.504 146.071 466.058 162.219C480.232 169.414 492.458 180.403 501.119 193.732C503.811 197.876 506.242 202.9 504.697 207.594C502.822 213.289 496.143 215.654 490.247 216.747C475.485 219.484 460.15 219.086 445.55 215.588C440.038 214.267 433.749 212.637 429.09 215.865C408.541 230.104 380.075 231.343 357.768 220.055C335.461 208.767 319.81 185.808 316.161 161.075C315.464 156.353 311.251 153.089 307.501 150.135C294.664 140.026 283.601 127.672 274.963 113.802C271.354 108.006 268.083 100.908 270.647 94.58C273.61 87.2691 282.731 84.8611 290.613 84.5347C308.126 83.8096 325.828 88.693 340.493 98.2945C350.58 85.745 365.181 76.9037 380.976 73.7803C396.772 70.6569 413.639 73.2758 427.743 81.0415C434.749 84.8989 441.032 89.9407 447.029 95.2323C453.296 100.762 459.404 106.738 463.248 114.159ZM475.7 197.782C472.578 202.577 466.117 203.744 460.397 203.897C443.022 204.362 425.983 199.586 409.258 194.853C397.596 191.552 385.878 188.231 374.864 183.172C368.177 180.1 361.795 176.407 355.495 172.604C332.975 159.009 309.998 142.185 301.676 117.23C300.05 112.356 303.328 106.824 307.965 104.612C312.603 102.399 318.112 102.893 323.018 104.42C325.565 105.212 328.128 106.282 330.789 106.092C333.45 105.902 336.236 103.899 336.153 101.233C336.066 98.427 333.12 96.7032 330.532 95.6152C315.891 89.4599 299.783 85.9554 284.054 88.1565C280.724 88.6225 277.187 89.4762 274.964 91.9997C270.94 96.5692 273.287 103.71 276.208 109.053C288.503 131.542 307.632 149.762 329.021 163.883C350.41 178.005 374.093 188.267 397.99 197.534C426.925 208.754 457.782 218.773 488.486 214.257C491.557 213.805 494.688 213.178 497.317 211.529C499.946 209.88 502.002 206.999 501.865 203.899C501.772 201.805 500.724 199.885 499.64 198.091C491.3 184.291 479.167 172.808 464.929 165.24C464.236 167.873 463.544 170.506 462.851 173.139C467.185 175.97 471.633 178.911 474.555 183.184C477.477 187.457 478.524 193.444 475.7 197.782ZM461.6 162.887C462.407 162.124 462.729 160.993 462.994 159.915C465.844 148.324 466.039 136.088 463.559 124.413C459 125.515 454.442 126.616 449.883 127.718C447.715 128.242 445.521 128.77 443.29 128.765C440.581 128.758 437.943 127.969 435.268 127.543C429.286 126.59 423.181 127.459 417.187 128.329C414.87 128.665 412.576 127.669 410.526 126.539C396.117 118.592 386.741 103.192 371.873 96.1454C370.287 95.3941 368.626 94.7293 367.29 93.5925C364.575 91.2821 363.579 87.3521 360.707 85.2392C362.931 94.3084 370.023 101.36 377.506 106.946C384.99 112.532 393.25 117.246 399.563 124.126C402.798 127.651 407.711 129.1 412.451 129.745C417.191 130.389 422.05 130.393 426.645 131.725C430.142 132.74 433.544 134.529 437.181 134.342C440.56 134.169 443.588 132.313 446.806 131.269C451.514 129.741 456.587 129.969 461.53 130.214C462.529 130.263 463.802 130.545 463.948 131.534C464.123 132.72 462.516 133.263 461.318 133.278C455.504 133.351 449.054 131.997 444.346 135.408C440.706 138.046 435.72 137.853 431.366 136.734C427.012 135.616 422.844 133.689 418.376 133.187C415.203 132.831 411.97 133.207 408.819 132.692C400.02 131.254 393.939 123.487 387.068 117.808C381.788 113.443 375.702 110.147 370.342 105.883C364.981 101.618 360.199 96.0302 359.016 89.2831C358.71 87.5363 356.061 88.0318 354.558 88.9733C350.875 91.2803 347.15 93.6217 344.155 96.7712C341.161 99.9208 338.928 104.018 338.897 108.364C338.855 114.406 343.593 120.134 349.537 121.225C354.569 122.148 354.499 131.583 359.61 131.807C362.896 131.95 364.606 135.633 366.076 138.574C367.547 141.515 370.907 144.591 373.68 142.823C375.484 141.672 377.78 142.96 379.659 143.985C381.538 145.01 384.4 145.511 385.383 143.611C381.513 142.95 379.42 137.583 381.821 134.476C383.63 132.135 386.9 131.555 389.858 131.479C393.325 131.39 396.945 131.804 399.876 133.66C402.806 135.516 404.842 139.112 404.011 142.48C403.046 146.388 403.781 150.686 405.989 154.052C407.773 152.906 409.557 151.759 411.341 150.612C413.736 149.073 416.218 147.5 419.027 147.041C421.835 146.583 425.081 147.537 426.456 150.028C427.833 152.523 426.977 155.608 426.092 158.317C430.811 156.552 436.407 157.366 440.427 160.402C445.72 164.398 452.902 165.77 459.296 164.005C460.128 163.775 460.974 163.48 461.6 162.887ZM435.697 90.4805C434.797 89.9672 433.663 89.4738 432.779 90.0146C429.627 91.9426 425.585 91.5474 422.025 90.5579C418.465 89.5684 414.992 88.0425 411.301 87.8881C408.523 87.7719 405.766 88.4438 402.986 88.4447C396.38 88.4467 390.42 84.7337 384.872 81.1484C384.16 80.6882 383.412 80.188 383.057 79.4182C382.702 78.6484 382.948 77.5391 383.755 77.2816C389.41 83.3888 398.059 86.5821 406.326 85.615C408.597 85.3494 410.858 84.7896 413.138 84.9501C416.387 85.1786 419.336 86.8359 422.434 87.8411C425.532 88.8464 429.309 89.0596 431.68 86.8264C412.892 72.4801 385.274 70.9218 364.991 83.0638C364.677 83.2518 364.317 83.5668 364.445 83.9099C366.508 89.4554 372.307 92.4655 377.296 95.6479C388.597 102.858 397.581 113.125 408.082 121.459C411.285 124.001 415.235 126.492 419.196 125.475C424.863 124.021 430.855 123.848 436.596 124.975C439.12 125.47 441.63 126.216 444.202 126.172C449.495 126.081 454.398 122.663 459.679 123.022C461.216 123.126 462.447 121.542 462.523 120.004C462.599 118.466 461.85 117.018 461.078 115.685C455.029 105.249 446.175 96.4559 435.697 90.4805ZM352.209 198.198C356.921 201.052 363.191 199.02 368.346 200.963C370.847 201.906 373.062 203.776 375.729 203.956C378.073 204.114 380.356 202.915 382.699 203.094C384.926 203.265 386.845 204.637 388.748 205.807C396.304 210.455 405.449 212.466 414.258 211.419C416.575 211.143 418.693 212.609 420.914 213.324C423.135 214.04 426.309 213.413 426.617 211.101C413.954 207.498 401.748 202.474 389.574 197.46C364.373 187.081 338.789 176.48 317.524 159.432C318.784 163.564 320.045 167.696 321.305 171.827C322.875 176.974 324.452 182.141 326.752 187.006C335.852 206.258 355.643 218.87 376.364 223.782C385.518 225.952 395.29 226.785 404.228 223.849C398.275 223.355 393.922 218.072 388.38 215.843C382.66 213.543 375.621 214.475 370.823 210.603C364.993 205.898 354.805 207.499 351.04 201.022C350.336 199.81 351.011 197.472 352.209 198.198ZM339.435 135.296C339.49 138.3 341.188 141.224 343.771 142.761C345.002 143.494 346.439 143.95 347.416 144.998C348.574 146.24 348.83 148.237 348.022 149.731C346.664 152.242 343.222 152.633 340.392 152.253C338.836 152.043 337.269 151.685 335.916 150.889C334.119 149.832 332.846 148.102 331.428 146.574C328.368 143.277 324.44 140.793 320.149 139.443C320.481 142.716 323.135 145.21 325.666 147.312C336.68 156.459 348.689 164.34 360.963 171.712C364.971 174.119 369.013 176.475 373.183 178.589C388.467 186.336 405.202 190.694 421.788 194.998C427.784 196.553 433.779 198.109 439.775 199.664C440.603 199.879 441.486 200.093 442.299 199.827C443.177 199.54 443.784 198.758 444.332 198.015C448.25 192.698 451.981 187.243 455.516 181.665C455.686 181.396 455.863 181.094 455.808 180.78C455.734 180.361 455.29 180.129 454.898 179.961C448.456 177.19 442.013 174.418 435.57 171.647C434.412 171.149 433.207 170.641 431.948 170.684C430.446 170.735 429.095 171.555 427.678 172.054C418.851 175.162 409.754 165.664 400.552 167.365C397.519 167.926 394.846 169.665 391.926 170.656C389.006 171.648 385.351 171.697 383.292 169.401C382.1 168.071 381.699 166.237 380.999 164.594C380.299 162.951 379 161.291 377.215 161.218C376.34 161.183 375.503 161.542 374.643 161.707C371.253 162.359 368.018 159.955 365.862 157.258C363.707 154.561 362.043 151.368 359.238 149.354C356.046 147.061 351.752 146.587 348.783 144.011C345.774 141.401 344.645 137.063 341.511 134.603C340.967 134.176 340.102 133.846 339.658 134.376C339.45 134.623 339.429 134.973 339.435 135.296ZM422.539 159.379C421.904 157.346 424.278 155.442 424.084 153.321C423.846 150.708 420.225 150.073 417.698 150.777C415.271 151.454 413.002 152.689 411.117 154.361C408.945 156.288 405.999 158.963 403.677 157.22C403.067 156.761 402.683 156.068 402.352 155.38C400.251 151.019 399.563 145.99 400.414 141.224C400.837 138.856 399.011 136.551 396.801 135.602C394.591 134.653 392.094 134.738 389.691 134.838C388.166 134.902 386.513 135.015 385.363 136.018C384.213 137.021 384.103 139.253 385.51 139.845C387.555 140.705 388.696 143.271 387.966 145.365C385.593 147.719 381.745 147.383 378.44 146.883C375.88 146.495 373.32 146.108 370.76 145.72C368.892 145.438 366.916 145.106 365.489 143.869C362.699 141.448 362.735 136.225 359.229 135.062C358.288 134.75 357.254 134.825 356.307 134.531C351.566 133.06 352.332 124.228 347.441 123.386C339.688 122.051 334.16 113.208 336.357 105.654C329.172 114.96 323.553 125.472 319.807 136.616C324.811 137.613 329.495 140.155 333.057 143.808C334.841 145.637 336.433 147.798 338.767 148.84C341.101 149.881 344.495 149.135 345.135 146.661C342.191 146.352 339.769 144.143 338.155 141.663C337.047 139.96 336.196 137.999 336.276 135.97C336.357 133.941 337.558 131.865 339.488 131.232C342.055 130.391 344.75 132.294 346.286 134.516C347.822 136.739 348.755 139.398 350.66 141.313C352.587 143.25 355.264 144.188 357.702 145.419C361.394 147.283 364.686 149.933 367.295 153.142C369.111 155.376 370.911 158.079 373.749 158.562C376.347 159.003 379.239 157.407 381.534 158.703C384.947 160.629 383.831 167.14 387.586 168.262C389.238 168.756 390.933 167.819 392.482 167.064C399.71 163.542 408.594 163.637 415.745 167.311C417.637 168.283 419.49 169.514 421.608 169.715C425.025 170.039 428.119 167.618 431.533 167.27C435.473 166.868 439.084 169.227 442.553 171.137C446.411 173.262 450.517 174.934 454.761 176.109C455.506 176.315 456.31 176.504 457.038 176.247C457.935 175.93 458.474 175.029 458.875 174.166C459.974 171.804 460.609 169.227 460.733 166.624C453.407 167.804 444.981 168.689 439.428 163.768C436.723 161.369 432.929 160.252 429.355 160.8C426.829 161.187 423.301 161.819 422.539 159.379ZM308.623 123.971C310.915 127.701 313.207 131.431 315.5 135.161C315.78 135.617 316.257 136.141 316.746 135.926C317.035 135.8 317.161 135.467 317.259 135.168C320.15 126.375 324.23 117.975 329.353 110.267C329.713 109.725 328.98 109.127 328.375 108.886C326.58 108.171 324.781 107.455 322.92 106.934C319.282 105.915 315.432 105.66 311.692 106.19C309.079 106.561 306.215 107.56 305.112 109.957C304.605 111.06 304.55 112.316 304.632 113.527C304.752 115.323 305.156 117.099 305.823 118.77C306.554 120.601 307.591 122.291 308.623 123.971ZM471.942 198.317C474.621 196.812 475.476 193.168 474.649 190.208C473.822 187.248 471.701 184.843 469.548 182.651C467.184 180.243 464.701 177.953 462.111 175.791C457.812 184.064 452.912 192.025 447.462 199.591C447.115 200.073 447.419 200.801 447.928 201.107C448.438 201.413 449.067 201.415 449.662 201.402C456.14 201.268 462.606 200.552 468.957 199.268C469.985 199.06 471.028 198.831 471.942 198.317ZM362.911 203.803C366.744 204.122 369.751 207.093 373.21 208.775C379.672 211.917 387.885 210.592 393.763 214.722C395.573 215.994 397.049 217.722 398.969 218.82C401.047 220.009 403.487 220.368 405.87 220.601C410.696 221.072 416.238 220.833 419.43 217.183C419.611 216.976 419.785 216.753 419.863 216.49C420.256 215.158 418.247 214.565 416.861 214.643C405.839 215.264 394.213 213.571 385.298 207.062C382.962 205.356 379.745 207.047 376.854 207.11C373.873 207.174 371.199 205.445 368.455 204.278C364.632 202.65 360.37 202.067 356.25 202.608C357.844 204.298 360.596 203.611 362.911 203.803Z" fill="#00160A"/>
<path fill-rule="evenodd" clip-rule="evenodd" d="M389.439 181.643C386.911 179.352 384.383 177.061 381.856 174.77C381.032 174.023 380.34 172.428 381.393 172.072C382.484 174.129 384.92 175.113 387.233 175.381C389.546 175.649 391.901 175.369 394.208 175.69C396.393 175.993 398.463 176.825 400.538 177.574C411.984 181.707 424.161 183.488 435.67 187.44C436.345 187.672 437.117 188.02 437.261 188.719C437.422 189.5 436.688 190.165 435.989 190.55C432.401 192.523 427.551 191.852 424.635 188.977C423.229 187.591 420.923 188.556 419.022 189.09C415.52 190.073 411.795 189.23 408.257 188.387C404.512 187.493 400.767 186.6 397.022 185.707C395.717 185.396 394.398 185.08 393.199 184.478C391.791 183.772 390.606 182.701 389.439 181.643ZM431.646 189.71C432.241 189.441 431.563 188.589 430.948 188.369C424.9 186.211 418.758 184.1 412.366 183.487C409.05 183.169 405.777 182.416 402.655 181.254C398.471 179.696 394.222 177.359 389.821 178.109C390.2 180.501 392.51 182.152 394.845 182.798C397.179 183.444 399.653 183.363 402.032 183.822C405.017 184.397 407.77 185.803 410.67 186.717C413.57 187.631 416.86 188.014 419.549 186.595C421.454 185.589 423.808 186.22 425.739 187.174C427.671 188.128 429.513 189.406 431.646 189.71Z" fill="#00160A"/>
</g>
<g id="satelite">
<path id="satelite_bg" fill-rule="evenodd" clip-rule="evenodd" d="M600.88 242.929C600.377 241.681 598.254 242.26 597.851 243.543C597.464 244.773 598.046 246.061 598.58 247.246L598.65 247.4C604.253 259.86 599.792 276.009 588.588 283.827C587.238 283.001 586.269 281.704 585.303 280.412C584.227 278.971 583.155 277.536 581.565 276.77C580.175 276.099 578.579 276.045 577.037 276.003L563.281 275.627C561.608 275.581 559.594 275.718 558.781 277.181C557.011 280.371 552.277 281.643 549.41 279.387C546.543 277.131 547.034 271.739 550.43 270.406C550.682 270.308 550.944 270.229 551.207 270.15C551.779 269.979 552.35 269.807 552.804 269.429C553.398 268.935 553.685 268.172 553.947 267.445L559.285 252.662C559.62 251.734 559.96 250.779 559.936 249.792C559.888 247.78 558.368 246.127 556.81 244.855C556.562 244.653 556.31 244.453 556.057 244.253C554.715 243.192 553.353 242.115 552.614 240.592C551.734 238.783 552.25 236.104 554.176 235.523C564.281 232.476 575.64 230.542 585.047 235.326C585.31 235.46 585.573 235.599 585.836 235.739C587.187 236.454 588.558 237.181 590.069 237.224C591.875 237.274 593.872 235.797 593.542 234.02C593.332 232.885 592.311 232.048 591.333 231.246C590.158 230.283 589.044 229.369 589.471 228.049C589.639 227.528 590.042 227.121 590.432 226.736L602.405 214.904C602.819 212.666 599.565 211.443 597.469 212.33C596.431 212.769 595.537 213.469 594.643 214.169C593.732 214.882 592.822 215.595 591.759 216.032C587.502 217.779 582.944 214.547 579.574 211.414C567.512 200.199 556.814 187.519 547.791 173.74C547.377 173.108 546.95 172.413 547.005 171.659C547.075 170.691 547.9 169.974 548.662 169.373L568.569 153.653C570.172 152.387 572.681 151.178 574.001 152.737L610.659 196.03C611.241 196.718 611.844 197.447 612.025 198.33C612.397 200.146 610.882 201.788 609.349 202.828C609.11 202.99 608.865 203.15 608.618 203.31C607.282 204.18 605.908 205.074 605.315 206.522C604.612 208.237 606.144 210.766 607.859 210.063C616.64 203.756 625.818 197.276 636.466 195.404C638.481 195.05 640.671 194.895 642.464 195.88C646.454 198.071 645.893 203.947 644.376 208.239C641.609 216.07 637.506 223.428 632.299 229.898C631.262 231.187 630.109 232.737 630.547 234.332C631.167 236.587 634.298 236.865 636.54 236.196C636.894 236.09 637.254 235.973 637.617 235.855C639.549 235.226 641.567 234.568 643.323 235.458C644.246 235.926 644.92 236.758 645.565 237.566L678.286 278.538C670.75 284.464 663.08 290.218 655.282 295.794C654.512 296.345 653.652 296.92 652.708 296.842C651.59 296.749 650.773 295.787 650.087 294.899L618.707 254.303C617.368 252.572 618.629 249.984 620.352 248.635C620.975 248.147 621.659 247.73 622.341 247.314C623.546 246.579 624.745 245.848 625.593 244.738C626.922 242.999 626.569 239.757 624.406 239.429C623.176 239.242 622.045 240.097 621.157 240.968C620.462 241.649 619.801 242.378 619.14 243.106C617.438 244.981 615.737 246.856 613.466 247.909C608.887 250.031 602.767 247.61 600.88 242.929ZM556.915 268.15C556.855 268.307 556.793 268.468 556.796 268.636C556.804 269.115 557.353 269.437 557.83 269.388C558.306 269.339 558.713 269.035 559.093 268.743L569.23 260.955C569.758 260.55 570.336 260.046 570.333 259.38C570.33 258.861 569.967 258.422 569.623 258.032L565.169 252.986C564.937 252.723 564.687 252.448 564.352 252.345C563.435 252.062 562.728 253.148 562.381 254.042L556.915 268.15ZM573.264 263.297C573.556 263.411 573.772 263.659 573.976 263.897L580.025 270.986C580.177 271.557 579.359 271.844 578.768 271.855L562.617 272.168C561.825 272.183 560.992 272.189 560.299 271.807C563.344 268.045 567.414 265.121 571.951 263.435C572.374 263.278 572.845 263.132 573.264 263.297Z" fill="white"/>
<path id="satelite_outline" fill-rule="evenodd" clip-rule="evenodd" d="M601.88 240.929C601.377 239.681 599.254 240.26 598.851 241.543C598.448 242.826 599.098 244.173 599.65 245.4C605.253 257.86 600.792 274.009 589.588 281.827C586.732 280.08 585.581 276.224 582.565 274.77C581.175 274.099 579.579 274.045 578.037 274.003C573.451 273.877 568.866 273.752 564.281 273.627C562.608 273.581 560.594 273.718 559.781 275.181C558.011 278.371 553.277 279.643 550.41 277.387C547.543 275.131 548.034 269.739 551.43 268.406C552.232 268.092 553.142 267.98 553.804 267.429C554.398 266.935 554.685 266.172 554.947 265.445C556.727 260.517 558.506 255.59 560.285 250.662C560.62 249.734 560.96 248.779 560.936 247.792C560.888 245.78 559.368 244.127 557.81 242.855C556.251 241.582 554.493 240.402 553.614 238.592C552.734 236.783 553.25 234.104 555.176 233.523C565.281 230.476 576.64 228.542 586.047 233.326C587.657 234.145 589.263 235.173 591.069 235.224C592.875 235.274 594.872 233.797 594.542 232.02C594.079 229.521 589.69 228.468 590.471 226.049C590.639 225.528 591.042 225.121 591.432 224.736C595.423 220.792 599.414 216.848 603.405 212.904C603.819 210.666 600.565 209.443 598.469 210.33C596.373 211.216 594.864 213.167 592.759 214.032C588.502 215.779 583.944 212.547 580.574 209.414C568.512 198.199 557.814 185.519 548.791 171.74C548.377 171.108 547.95 170.413 548.005 169.659C548.075 168.691 548.9 167.974 549.662 167.373C556.298 162.133 562.934 156.893 569.569 151.653C571.172 150.387 573.681 149.178 575.001 150.737C587.22 165.168 599.439 179.599 611.659 194.03C612.241 194.718 612.844 195.447 613.025 196.33C613.397 198.146 611.882 199.788 610.349 200.828C608.815 201.869 607.017 202.807 606.315 204.522C605.612 206.237 607.144 208.766 608.859 208.063C617.64 201.756 626.818 195.276 637.466 193.404C639.481 193.05 641.671 192.895 643.464 193.88C647.454 196.071 646.893 201.947 645.376 206.239C642.609 214.07 638.506 221.428 633.299 227.898C632.262 229.187 631.109 230.737 631.547 232.332C632.167 234.587 635.298 234.865 637.54 234.196C639.781 233.528 642.237 232.401 644.323 233.458C645.246 233.926 645.92 234.758 646.565 235.566C657.472 249.223 668.379 262.881 679.286 276.538C671.75 282.464 664.08 288.218 656.282 293.794C655.512 294.345 654.652 294.92 653.708 294.842C652.59 294.749 651.773 293.787 651.087 292.899C640.627 279.367 630.167 265.835 619.707 252.303C618.368 250.572 619.629 247.984 621.352 246.635C623.075 245.286 625.264 244.476 626.593 242.738C627.922 240.999 627.569 237.757 625.406 237.429C624.176 237.242 623.045 238.097 622.157 238.968C619.674 241.401 617.619 244.447 614.466 245.909C609.887 248.031 603.767 245.61 601.88 240.929ZM591.387 277.469C597.769 270.11 601.773 259.853 598.984 250.519C596.648 242.706 589.767 236.722 581.979 234.304C574.191 231.886 565.654 232.724 557.952 235.404C557.26 235.646 556.451 236.058 556.424 236.791C556.407 237.242 556.709 237.635 556.996 237.984C567.793 251.13 578.591 264.276 589.388 277.421C589.654 277.745 589.977 278.098 590.396 278.1C590.801 278.102 591.122 277.775 591.387 277.469ZM641.387 204.914C637.298 204.542 634.044 200.196 634.838 196.169C619.14 203.207 605.034 213.77 593.861 226.853C598.207 232.682 603.084 238.116 608.411 243.065C608.96 243.576 609.57 244.107 610.317 244.181C611.127 244.261 611.876 243.783 612.542 243.316C625.338 234.355 635.619 221.842 641.926 207.551C642.353 206.585 642.439 205.009 641.387 204.914ZM583.941 193.083C584.819 192.36 585.78 191.456 585.704 190.322C585.648 189.485 585.032 188.807 584.451 188.203C581.856 185.509 579.262 182.815 576.668 180.121C575.93 179.355 574.712 179.231 573.693 179.537C572.675 179.843 571.809 180.506 570.967 181.156C570.316 181.659 569.642 182.663 570.291 183.168C573.797 185.897 576.944 189.087 579.627 192.629C580.116 193.274 580.666 193.981 581.462 194.13C582.374 194.3 583.224 193.673 583.941 193.083ZM593.325 209.103C594.361 209.316 595.342 208.614 596.168 207.954C596.873 207.39 597.646 206.686 597.61 205.784C597.586 205.172 597.187 204.649 596.805 204.171C594.189 200.892 591.573 197.613 588.957 194.334C588.776 194.107 588.572 193.866 588.287 193.806C588.003 193.746 587.718 193.886 587.464 194.028C586.414 194.614 585.424 195.308 584.514 196.096C584.144 196.416 583.768 196.786 583.678 197.266C583.572 197.826 583.88 198.373 584.184 198.855C586.302 202.212 588.831 205.31 591.697 208.058C592.169 208.51 592.684 208.972 593.325 209.103ZM556.915 267.15C556.855 267.307 556.793 267.468 556.796 267.636C556.804 268.115 557.353 268.437 557.83 268.388C558.306 268.339 558.713 268.035 559.093 267.743C562.472 265.147 565.851 262.551 569.23 259.955C569.758 259.55 570.336 259.046 570.333 258.38C570.33 257.861 569.967 257.422 569.623 257.032C568.138 255.35 566.654 253.668 565.169 251.986C564.937 251.723 564.687 251.448 564.352 251.345C563.435 251.062 562.728 252.148 562.381 253.042C560.559 257.745 558.737 262.447 556.915 267.15ZM573.976 262.897C573.772 262.659 573.556 262.411 573.264 262.297C572.845 262.132 572.374 262.278 571.951 262.435C567.414 264.121 563.344 267.045 560.299 270.807C560.992 271.189 561.825 271.183 562.617 271.168C568.001 271.064 573.384 270.959 578.768 270.855C579.359 270.844 580.177 270.557 580.025 269.986C578.008 267.623 575.992 265.26 573.976 262.897ZM559.602 164.182C559.237 164.546 558.846 164.966 558.839 165.483C558.834 165.831 559.008 166.153 559.178 166.458C561.064 169.851 562.95 173.245 564.836 176.638C565.243 177.371 565.669 178.125 566.334 178.635C567 179.145 567.975 179.348 568.678 178.892C569.657 178.258 570.635 177.623 571.613 176.989C572.335 176.52 573.1 175.464 572.401 174.961C568.358 172.052 565.065 168.11 562.919 163.615C562.634 163.018 561.827 162.831 561.196 163.031C560.565 163.231 560.071 163.714 559.602 164.182ZM577.412 198.441C578.223 197.638 578.262 196.292 577.813 195.243C577.363 194.194 576.522 193.371 575.701 192.578C573.458 190.412 571.215 188.246 568.972 186.079C568.347 185.476 567.7 184.857 566.891 184.539C566.082 184.221 565.062 184.277 564.46 184.904C563.343 186.071 564.386 187.962 565.427 189.198C567.444 191.593 569.462 193.989 571.48 196.384C572.242 197.289 573.036 198.22 574.098 198.743C575.16 199.267 576.571 199.275 577.412 198.441ZM581.495 169.857C583.057 169.831 584.06 167.973 583.797 166.432C583.535 164.891 582.431 163.649 581.373 162.498C579.2 160.132 577.026 157.767 574.853 155.401C574.142 154.628 573.201 153.781 572.188 154.055C571.296 154.296 570.841 155.362 570.965 156.277C571.089 157.193 571.638 157.987 572.171 158.742C574.257 161.695 576.343 164.648 578.43 167.602C579.193 168.683 580.172 169.879 581.495 169.857ZM622.938 250.868C622.878 251.228 623.089 251.572 623.291 251.877C625.351 254.983 627.41 258.089 629.47 261.196C630.085 262.123 631.279 262.625 632.372 262.416C633.464 262.207 634.389 261.299 634.618 260.211C634.949 258.641 633.939 257.135 632.982 255.847C631.262 253.535 629.543 251.222 627.823 248.909C627.288 248.189 626.195 248.095 625.372 248.451C624.548 248.807 623.931 249.506 623.342 250.183C623.165 250.385 622.982 250.603 622.938 250.868ZM640.022 257.564C640.619 257.156 641.249 256.707 641.512 256.032C641.956 254.892 641.185 253.67 640.449 252.692C638.717 250.389 636.969 248.097 635.205 245.818C634.483 244.885 633.659 243.89 632.502 243.659C631.482 243.456 630.36 243.973 629.852 244.88C629.344 245.787 629.488 247.014 630.194 247.778C632.903 250.71 635.153 254.065 636.839 257.684C637.353 258.787 639.018 258.251 640.022 257.564ZM551.747 170.921C551.946 171.852 552.581 172.619 553.196 173.345C555.676 176.276 558.156 179.206 560.636 182.137C560.829 182.365 561.025 182.596 561.273 182.762C561.87 183.163 562.737 183.097 563.266 182.612C563.796 182.127 563.937 181.268 563.59 180.639C561.433 176.732 559.277 172.824 557.121 168.916C556.456 167.712 554.858 167.12 553.569 167.601C552.28 168.082 551.461 169.576 551.747 170.921ZM651.929 275.745C651.567 276.148 651.181 276.607 651.194 277.149C651.205 277.611 651.506 278.009 651.793 278.371C653.809 280.911 655.834 283.444 657.868 285.97C658.206 286.389 658.561 286.823 659.051 287.046C660.239 287.59 661.558 286.701 662.561 285.864C663.003 285.494 663.488 285.028 663.433 284.455C663.401 284.117 663.182 283.83 662.972 283.563C660.626 280.583 658.281 277.604 655.935 274.625C655.443 274 654.483 273.924 653.751 274.235C653.019 274.546 652.462 275.155 651.929 275.745ZM566.372 162.937C567.888 167.056 570.672 170.899 574.667 172.718C575.65 173.166 577.074 173.346 577.575 172.39C578.081 171.424 577.123 170.377 576.326 169.632C573.161 166.672 571.274 162.629 569.463 158.691C568.896 157.459 566.838 157.803 566.195 158.997C565.551 160.191 565.903 161.664 566.372 162.937ZM645.9 262.362C645.252 261.478 644.571 260.565 643.602 260.054C642.633 259.543 641.288 259.567 640.585 260.408C639.468 261.745 640.688 263.703 641.82 265.028C644.009 267.591 646 270.322 647.772 273.189C648.459 274.301 650.169 273.554 651.176 272.721C651.702 272.286 652.284 271.699 652.129 271.034C652.073 270.793 651.923 270.585 651.777 270.385C649.818 267.711 647.859 265.037 645.9 262.362ZM640.561 237.644C640.481 238.627 641.044 239.535 641.584 240.361C643.838 243.807 646.107 247.271 648.916 250.281C650.596 250.172 651.56 248.119 651.217 246.471C650.874 244.823 649.675 243.513 648.599 242.218C647.161 240.488 645.866 238.638 644.732 236.695C644.256 235.878 643.221 235.429 642.299 235.639C641.376 235.849 640.638 236.701 640.561 237.644ZM643.218 277.533C643.953 278.039 645.041 277.948 645.681 277.326C646.375 276.651 646.47 275.535 646.168 274.615C645.866 273.696 645.236 272.926 644.62 272.18C642.838 270.021 641.056 267.862 639.274 265.703C638.609 264.898 637.9 264.06 636.927 263.682C635.953 263.304 634.641 263.58 634.225 264.538C633.786 265.549 634.506 266.659 635.187 267.525C637.594 270.581 640.001 273.637 642.408 276.693C642.649 277 642.896 277.312 643.218 277.533ZM664.184 262.475C664.055 261.973 663.703 261.563 663.361 261.174C660.842 258.298 658.324 255.421 655.805 252.545C655.602 252.313 655.382 252.071 655.086 251.983C654.794 251.897 654.482 251.979 654.188 252.061C653.477 252.26 652.73 252.479 652.217 253.009C651.704 253.54 651.547 254.49 652.088 254.992C654.136 256.89 655.967 259.022 657.533 261.333C658.444 262.678 659.38 264.177 660.91 264.722C662.441 265.266 664.589 264.048 664.184 262.475ZM592.188 190.507C591.518 191.407 591.96 192.686 592.506 193.666C594.141 196.601 596.505 199.051 598.842 201.465C599.442 202.085 600.071 202.723 600.88 203.022C601.689 203.321 602.734 203.171 603.207 202.449C603.857 201.457 603.114 200.168 602.394 199.225C600.578 196.848 598.763 194.471 596.947 192.093C596.354 191.317 595.73 190.515 594.853 190.084C593.977 189.654 592.772 189.724 592.188 190.507ZM669.857 277.003C670.656 277.987 671.865 279.079 673.015 278.546C674.016 278.082 674.419 276.534 675.523 276.528C673.586 274.034 671.65 271.539 669.713 269.044C668.933 268.039 668.094 266.989 666.907 266.53C665.721 266.07 664.099 266.482 663.702 267.691C663.336 268.807 664.123 269.943 664.864 270.854C666.528 272.904 668.193 274.953 669.857 277.003ZM597.305 182.925C595.358 179.878 593.163 176.99 590.748 174.299C590.113 173.591 589.462 172.897 588.812 172.203C588.28 171.635 587.709 171.043 586.96 170.834C586.06 170.584 585.017 171.005 584.544 171.81C584.07 172.615 584.209 173.731 584.866 174.395C587.429 176.989 589.993 179.584 592.556 182.179C593.229 182.86 593.942 183.565 594.858 183.845C595.773 184.125 596.947 183.813 597.305 182.925ZM609.238 197.399C609.475 197.212 609.731 196.992 609.762 196.691C609.795 196.375 609.566 196.097 609.352 195.861C606.567 192.796 603.782 189.73 600.998 186.665C600.446 186.057 599.732 185.392 598.927 185.555C598.147 185.714 597.722 186.636 597.828 187.425C597.934 188.215 598.422 188.893 598.894 189.534C600.048 191.1 601.201 192.666 602.355 194.232C603.709 196.071 605.127 197.966 607.126 199.071C607.83 198.514 608.534 197.956 609.238 197.399ZM650.456 257.497C649.779 256.752 648.881 255.935 647.907 256.19C647.031 256.419 646.59 257.475 646.73 258.37C646.87 259.266 647.433 260.029 647.978 260.753C649.545 262.834 651.112 264.915 652.679 266.996C653.495 268.08 654.645 269.293 655.962 268.968C657.128 268.68 657.68 267.233 657.417 266.061C657.153 264.89 656.316 263.945 655.508 263.057C653.824 261.203 652.14 259.35 650.456 257.497ZM646.216 280.445C645.459 281.636 646.318 283.169 647.18 284.287C648.527 286.036 649.945 287.73 651.428 289.366C652.015 290.013 652.661 290.681 653.508 290.893C654.429 291.123 655.474 290.709 655.987 289.911C656.5 289.112 656.442 287.989 655.85 287.248C654.464 285.514 653.079 283.779 651.694 282.045C650.994 281.169 650.255 280.262 649.232 279.803C648.209 279.345 646.818 279.498 646.216 280.445ZM578.649 175.79C578.01 176.725 578.847 177.94 579.636 178.753C582.391 181.591 585.146 184.43 587.902 187.269C588.484 187.869 589.191 188.518 590.023 188.432C591.072 188.324 591.646 187.027 591.396 186.003C591.146 184.979 590.349 184.193 589.586 183.465C587.167 181.155 584.747 178.845 582.328 176.536C581.809 176.041 581.268 175.532 580.589 175.3C579.911 175.069 579.054 175.198 578.649 175.79ZM636.987 239.54C636.075 239.552 635.455 240.589 635.538 241.497C635.621 242.406 636.186 243.188 636.731 243.92C638.691 246.551 640.651 249.183 642.612 251.815C642.994 252.328 643.395 252.858 643.963 253.154C644.53 253.449 645.314 253.434 645.726 252.944C646.319 252.24 645.807 251.183 645.29 250.421C643.148 247.268 641.006 244.114 638.864 240.961C638.404 240.283 637.807 239.529 636.987 239.54ZM668.462 279.962C666.001 276.994 663.539 274.025 661.078 271.056C660.782 270.698 660.456 270.321 660.008 270.202C659.131 269.97 658.302 270.914 658.295 271.821C658.289 272.727 658.828 273.537 659.359 274.272C660.999 276.539 662.774 278.708 664.671 280.764C665.345 281.495 666.116 282.255 667.103 282.377C668.089 282.5 669.217 281.581 668.897 280.64C668.81 280.384 668.634 280.17 668.462 279.962ZM586.753 211.132C587.374 211.805 588.103 212.528 589.019 212.542C589.934 212.555 590.756 211.311 590.069 210.705C587.279 208.242 584.803 205.425 582.718 202.342C582.158 201.515 581.569 200.62 580.641 200.25C579.713 199.881 578.385 200.398 578.362 201.397C578.349 201.988 578.776 202.487 579.177 202.922C581.702 205.659 584.228 208.395 586.753 211.132ZM637.77 198.055C638.053 200.188 640.104 201.936 642.255 201.879C642.607 201.869 642.984 201.805 643.239 201.562C643.489 201.323 643.571 200.962 643.641 200.623C643.967 199.04 643.989 196.896 642.461 196.369C641.832 196.152 641.128 196.32 640.485 196.151C640.034 196.033 639.619 195.751 639.154 195.753C638.138 195.756 637.637 197.048 637.77 198.055ZM556.54 271.465C555.914 270.793 554.968 270.491 554.05 270.461C553.549 270.444 553.027 270.507 552.6 270.769C552.213 271.005 551.934 271.39 551.754 271.806C550.939 273.69 552.611 276.191 554.658 276.037C556.705 275.883 557.939 272.967 556.54 271.465ZM596.365 239.322C597.243 239.275 598.024 238.507 598.084 237.63C598.113 237.211 597.991 236.784 597.746 236.443C597.012 235.423 595.171 235.586 594.628 236.719C594.085 237.851 595.111 239.388 596.365 239.322ZM605.175 210.444C605.518 210.655 605.886 210.874 606.288 210.861C606.69 210.848 607.105 210.491 607.019 210.098C605.459 208.663 603.899 207.227 602.339 205.791C601.934 206.702 602.241 207.803 602.851 208.591C603.461 209.379 604.328 209.92 605.175 210.444ZM630.029 237.424C630.637 237.95 631.61 237.049 631.445 236.263C631.28 235.476 630.523 234.98 629.83 234.573C629.137 234.166 628.378 233.675 628.206 232.89C627.201 234.373 628.674 236.252 630.029 237.424Z" fill="#00160A"/>
<path id="highlight_6" fill-rule="evenodd" clip-rule="evenodd" d="M609.386 217.538C611.292 216.026 613.199 214.514 615.105 213.002C615.652 212.569 616.242 212.117 616.938 212.056C617.959 211.966 618.835 212.733 619.562 213.457C622.066 215.954 624.444 218.578 626.684 221.315C627.229 221.981 626.543 222.931 625.901 223.504C623.786 225.392 621.671 227.28 619.556 229.168C619.021 229.645 618.447 230.142 617.742 230.269C616.645 230.464 615.625 229.72 614.759 229.02C612.926 227.536 611.093 226.052 609.26 224.568C608.16 223.678 606.965 222.605 606.925 221.19C606.881 219.665 608.19 218.486 609.386 217.538ZM618.976 217.773C618.428 217.161 617.788 216.504 616.968 216.466C616.329 216.436 615.745 216.794 615.207 217.139C614.247 217.755 613.286 218.371 612.326 218.987C611.949 219.229 611.556 219.487 611.344 219.882C610.804 220.888 611.692 222.042 612.513 222.836C613.717 224.001 614.922 225.166 616.126 226.332C616.495 226.689 616.936 227.073 617.447 227.023C617.809 226.988 618.11 226.74 618.379 226.497C619.409 225.569 620.354 224.547 621.198 223.447C621.795 222.668 622.332 221.518 621.677 220.787C620.777 219.782 619.876 218.778 618.976 217.773Z" fill="#FFB61D"/>
</g>
</g>
</svg>
